<?xml version="1.0" standalone="no"?>
  <!DOCTYPE svg PUBLIC "-//W3C//DTD SVG 1.1//EN" "http://www.w3.org/Graphics/SVG/1.1/DTD/svg11.dtd" >
  <svg>
  <metadata>
  Created by font-carrier
  </metadata>
  <defs>
  <font id="SBSansText-Medium" horiz-adv-x="1359" vert-adv-y="1359" >
    <font-face
      
      font-family="SB Sans Text Medium"
      
      font-weight="400"
      
      font-stretch="normal"
      
      units-per-em="1000"
      
      ascent="982"
      
      descent="-272"
      
    />
      <missing-glyph />

      

      
      <glyph glyph-name="uni21" unicode="&#x21;" d="M213-11Q139-11 139 61Q139 133 213 133Q288 133 288 61Q288-11 213-11M160 235L157 700L269 700L265 235L160 235Z"  horiz-adv-x="386" vert-adv-y="1000"  />

      
      <glyph glyph-name="uni22" unicode="&#x22;" d="M137 427L137 700L230 700L230 427L137 427M349 427L349 700L442 700L442 427L349 427Z"  horiz-adv-x="579" vert-adv-y="1000"  />

      
      <glyph glyph-name="uni23" unicode="&#x23;" d="M104 0L154 187L35 187L60 270L175 270L220 437L96 437L121 520L241 520L289 700L381 700L333 520L488 520L536 700L628 700L580 520L703 520L678 437L559 437L514 270L643 270L618 187L493 187L443 0L352 0L401 187L246 187L196 0L104 0M266 270L422 270L467 437L312 437L266 270Z"  horiz-adv-x="738" vert-adv-y="1000"  />

      
      <glyph glyph-name="uni24" unicode="&#x24;" d="M426 188Q426 222 406.50 245.50Q387 269 356.50 282.50Q326 296 288.50 307.50Q251 319 213.50 333.50Q176 348 145.50 368.50Q115 389 95.50 426.50Q76 464 76 515Q76 688 268 707L268 800L349 800L349 710Q449 705 515 674L515 552Q482 580 431.50 597Q381 614 329 614Q251 614 220.50 592Q190 570 190 524Q190 492 209.50 469.50Q229 447 260.50 434.50Q292 422 329.50 411Q367 400 405 385Q443 370 474.50 348.50Q506 327 525.50 287.50Q545 248 545 194Q545 15 349-6L349-120L268-120L268-10Q140-5 71 46L71 178Q158 87 283 87Q426 87 426 188Z"  horiz-adv-x="610" vert-adv-y="1000"  />

      
      <glyph glyph-name="uni25" unicode="&#x25;" d="M175 0L679 700L771 700L270 0L175 0M505 151Q505 231 553 274Q601 317 687 317Q766 317 811 274.50Q856 232 856 151Q856 69 808 26Q760-17 676-17Q594-17 549.50 26.50Q505 70 505 151M775 151Q775 240 681 240Q588 240 588 151Q588 107 612.50 83.50Q637 60 683 60Q775 60 775 151M83 545Q83 625 131 668Q179 711 264 711Q344 711 389 668.50Q434 626 434 545Q434 464 385.50 420.50Q337 377 253 377Q172 377 127.50 420.50Q83 464 83 545M352 545Q352 634 259 634Q165 634 165 545Q165 502 190 478Q215 454 260 454Q352 454 352 545Z"  horiz-adv-x="939" vert-adv-y="1000"  />

      
      <glyph glyph-name="uni26" unicode="&#x26;" d="M661 512L762 512Q762 418 733 318.50Q704 219 649 142Q723 103 782 99L782-12Q688-2 580 71Q485-17 354-17Q93-17 93 209Q93 360 255 430Q220 498 220 559Q220 712 391 712Q468 712 508.50 677Q549 642 549 579Q549 509 507.50 466Q466 423 376 396Q454 275 574 189Q661 306 661 512M504 126Q371 233 295 360Q196 321 196 224Q196 148 235.50 115.50Q275 83 364 83Q447 83 504 126M339 462Q402 483 427 505.50Q452 528 452 564Q452 596 436.50 610Q421 624 383 624Q347 624 331 607.50Q315 591 315 551Q315 510 339 462Z"  horiz-adv-x="893" vert-adv-y="1000"  />

      
      <glyph glyph-name="uni27" unicode="&#x27;" d="M137 427L137 700L230 700L230 427L137 427Z"  horiz-adv-x="367" vert-adv-y="1000"  />

      
      <glyph glyph-name="uni28" unicode="&#x28;" d="M325-148L277-192Q252-175 221-138.50Q190-102 155-43.50Q120 15 96.50 102.50Q73 190 73 287Q73 450 142 585.50Q211 721 277 766L328 723Q305 698 283 663.50Q261 629 234.50 575Q208 521 191.50 445Q175 369 175 287Q175 182 204.50 84.50Q234-13 264.50-64.50Q295-116 325-148Z"  horiz-adv-x="364" vert-adv-y="1000"  />

      
      <glyph glyph-name="uni29" unicode="&#x29;" d="M39-148Q69-116 99.50-64.50Q130-13 159.50 85Q189 183 189 288Q189 371 172.50 446Q156 521 130 575.50Q104 630 81.50 664Q59 698 36 723L88 766Q116 747 149 705Q182 663 215 602.50Q248 542 270 458Q292 374 292 288Q292 191 268.50 103.50Q245 16 209.50-43Q174-102 143-138.50Q112-175 87-192L39-148Z"  horiz-adv-x="364" vert-adv-y="1000"  />

      
      <glyph glyph-name="uni2a" unicode="&#x2a;" d="M132 365L235 481L84 514L114 608L257 546L241 700L340 700L324 547L467 608L496 514L346 481L449 365L369 308L290 441L211 308L132 365Z"  horiz-adv-x="580" vert-adv-y="1000"  />

      
      <glyph glyph-name="uni2b" unicode="&#x2b;" d="M88 294L88 389L258 389L258 559L352 559L352 389L522 389L522 294L352 294L352 125L258 125L258 294L88 294Z"  horiz-adv-x="610" vert-adv-y="1000"  />

      
      <glyph glyph-name="uni2c" unicode="&#x2c;" d="M56-102Q107-97 140-71.50Q173-46 181-10Q104-10 104 61Q104 94 123.50 114Q143 134 179 134Q267 134 267 31Q267-52 220-104.50Q173-157 112-170L56-102Z"  horiz-adv-x="369" vert-adv-y="1000"  />

      
      <glyph glyph-name="uni2d" unicode="&#x2d;" d="M96 245L96 340L379 340L379 245L96 245Z"  horiz-adv-x="475" vert-adv-y="1000"  />

      
      <glyph glyph-name="uni2e" unicode="&#x2e;" d="M177-11Q103-11 103 63Q103 137 177 137Q253 137 253 63Q253-11 177-11Z"  horiz-adv-x="355" vert-adv-y="1000"  />

      
      <glyph glyph-name="uni2f" unicode="&#x2f;" d="M2-180L258 754L353 754L97-180L2-180Z"  horiz-adv-x="354" vert-adv-y="1000"  />

      
      <glyph glyph-name="uni30" unicode="&#x30;" d="M57 349Q57 544 118.50 626.50Q180 709 314 709Q442 709 497.50 624.50Q553 540 553 349Q553 150 492.50 69.50Q432-11 305-11Q177-11 117 77Q57 165 57 349M166 349Q166 203 199.50 142.50Q233 82 309 82Q385 82 414.50 138Q444 194 444 346Q444 504 414.50 560.50Q385 617 305 617Q226 617 196 559Q166 501 166 349Z"  horiz-adv-x="610" vert-adv-y="1000"  />

      
      <glyph glyph-name="uni31" unicode="&#x31;" d="M95 0L95 96L301 96L301 580L95 458L95 562L333 706L408 706L408 96L534 96L534 0L95 0Z"  horiz-adv-x="610" vert-adv-y="1000"  />

      
      <glyph glyph-name="uni32" unicode="&#x32;" d="M58 0L58 70Q92 99 144.50 142.50Q197 186 220 206Q243 226 279.50 258Q316 290 331 306.50Q346 323 366.50 348Q387 373 394.50 391.50Q402 410 408 433Q414 456 414 480Q414 546 378 576.50Q342 607 265 607Q166 607 69 541L69 664Q159 709 287 709Q414 709 471 656Q528 603 528 503Q528 427 496.50 365Q465 303 404.50 245.50Q344 188 225 98L541 98L541 0L58 0Z"  horiz-adv-x="610" vert-adv-y="1000"  />

      
      <glyph glyph-name="uni33" unicode="&#x33;" d="M188 310L188 401L247 401Q330 401 366.50 429Q403 457 403 517Q403 566 374 588Q345 610 267 610Q167 610 69 548L69 660Q159 709 291 709Q409 709 460.50 667.50Q512 626 513 536Q514 469 479.50 427Q445 385 372 366Q455 359 499.50 317Q544 275 544 202Q544-9 289-9Q142-9 62 39L62 165Q146 95 278 95Q363 95 398.50 122Q434 149 434 207Q434 259 394 284.50Q354 310 251 310L188 310Z"  horiz-adv-x="610" vert-adv-y="1000"  />

      
      <glyph glyph-name="uni34" unicode="&#x34;" d="M40 182L40 249L346 700L482 700L482 280L580 280L580 182L482 182L482 0L375 0L375 182L40 182M375 280L375 586L171 280L375 280Z"  horiz-adv-x="610" vert-adv-y="1000"  />

      
      <glyph glyph-name="uni35" unicode="&#x35;" d="M89 343L120 700L518 700L518 604L205 604L190 440Q217 443 296 443Q429 443 484 389.50Q539 336 539 230Q539 112 476 51.50Q413-9 272-9Q153-9 78 22L78 141Q109 121 162.50 107.50Q216 94 262 94Q353 94 391 126Q429 158 429 224Q429 295 392 323.50Q355 352 249 352Q142 352 89 343Z"  horiz-adv-x="610" vert-adv-y="1000"  />

      
      <glyph glyph-name="uni36" unicode="&#x36;" d="M317-9Q174-9 112 75.50Q50 160 50 329Q50 709 373 709Q451 709 514 687L514 572Q452 608 362 608Q264 608 206 548Q148 488 148 362Q148 345 150 333Q177 394 225.50 424.50Q274 455 354 455Q456 455 508 396.50Q560 338 560 244Q560 117 493.50 54Q427-9 317-9M169 258Q169 177 207 134Q245 91 320 91Q381 91 416 126Q451 161 451 229Q451 297 420.50 330.50Q390 364 320 364Q204 364 169 258Z"  horiz-adv-x="610" vert-adv-y="1000"  />

      
      <glyph glyph-name="uni37" unicode="&#x37;" d="M155 0L429 594L62 594L62 700L558 700L558 631L275 0L155 0Z"  horiz-adv-x="610" vert-adv-y="1000"  />

      
      <glyph glyph-name="uni38" unicode="&#x38;" d="M53 198Q53 338 184 374Q122 390 95.50 425.50Q69 461 69 526Q69 712 306 712Q535 712 535 545Q535 475 511.50 434Q488 393 422 374Q497 357 527 317Q557 277 557 204Q557 105 496 48Q435-9 307-9Q180-9 116.50 45Q53 99 53 198M164 215Q164 89 307 89Q381 89 414.50 120Q448 151 448 213Q448 328 306 328Q237 328 200.50 298Q164 268 164 215M174 509Q174 462 206.50 433.50Q239 405 304 405Q429 405 429 511Q429 566 401 590Q373 614 304 614Q236 614 205 588Q174 562 174 509Z"  horiz-adv-x="610" vert-adv-y="1000"  />

      
      <glyph glyph-name="uni39" unicode="&#x39;" d="M293 709Q436 709 498 625Q560 541 560 372Q560-9 237-9Q157-9 96 14L96 128Q156 93 248 93Q346 93 404 153Q462 213 462 339Q462 356 460 368Q433 306 386 275.50Q339 245 260 245Q158 245 104 304Q50 363 50 457Q50 584 116.50 646.50Q183 709 293 709M442 451Q439 526 401 568Q363 610 290 609Q229 608 194.50 574Q160 540 159 472Q156 336 294 336Q417 336 442 451Z"  horiz-adv-x="610" vert-adv-y="1000"  />

      
      <glyph glyph-name="uni3a" unicode="&#x3a;" d="M179-11Q105-11 105 63Q105 137 179 137Q255 137 255 63Q255-11 179-11M179 353Q105 353 105 427Q105 501 179 501Q255 501 255 427Q255 353 179 353Z"  horiz-adv-x="355" vert-adv-y="1000"  />

      
      <glyph glyph-name="uni3b" unicode="&#x3b;" d="M181 352Q107 352 107 426Q107 500 181 500Q257 500 257 426Q257 352 181 352M58-102Q109-97 142-71.50Q175-46 183-10Q106-10 106 61Q106 94 125.50 114Q145 134 181 134Q269 134 269 31Q269-52 222-104.50Q175-157 114-170L58-102Z"  horiz-adv-x="369" vert-adv-y="1000"  />

      
      <glyph glyph-name="uni3c" unicode="&#x3c;" d="M65 284L65 366L494 538L494 443L180 326L180 324L494 207L494 111L65 284Z"  horiz-adv-x="598" vert-adv-y="1000"  />

      
      <glyph glyph-name="uni3d" unicode="&#x3d;" d="M81 178L81 268L519 268L519 178L81 178M81 392L81 482L519 482L519 392L81 392Z"  horiz-adv-x="600" vert-adv-y="1000"  />

      
      <glyph glyph-name="uni3e" unicode="&#x3e;" d="M104 111L104 207L418 324L418 326L104 443L104 538L534 366L534 284L104 111Z"  horiz-adv-x="598" vert-adv-y="1000"  />

      
      <glyph glyph-name="uni3f" unicode="&#x3f;" d="M191 234Q191 274 206.50 304.50Q222 335 245.50 352Q269 369 296.50 387Q324 405 347.50 420Q371 435 386.50 459.50Q402 484 402 516Q402 560 366.50 586Q331 612 263 612Q172 612 101 568L101 681Q167 709 275 709Q511 709 511 524Q511 471 488 432Q465 393 432.50 370.50Q400 348 368 329.50Q336 311 313 287.50Q290 264 290 234L191 234M166 61Q166 133 240 133Q315 133 315 61Q315-11 240-11Q202-11 184 9Q166 29 166 61Z"  horiz-adv-x="591" vert-adv-y="1000"  />

      
      <glyph glyph-name="uni40" unicode="&#x40;" d="M730 63Q675 63 648 85.50Q621 108 612 156Q599 113 564.50 88Q530 63 479 63Q394 63 352.50 117Q311 171 311 293Q311 402 359.50 459.50Q408 517 492 517Q577 517 605 448L615 506L689 506L689 204Q689 170 701.50 155Q714 140 740 140Q786 140 819.50 185.50Q853 231 853 321Q853 469 769 551Q685 633 526 633Q360 633 272 543.50Q184 454 184 288Q184 132 270 38Q356-56 529-56Q648-56 713-5L713-89Q635-126 529-126Q328-126 218.50-12.50Q109 101 109 290Q109 475 219 589Q329 703 528 703Q713 703 820 601.50Q927 500 927 323Q927 207 872.50 135Q818 63 730 63M405 295Q405 210 427 175.50Q449 141 503 141Q547 141 571 174.50Q595 208 595 270L595 323Q595 438 506 438Q456 438 430.50 404.50Q405 371 405 295Z"  horiz-adv-x="1034" vert-adv-y="1000"  />

      
      <glyph glyph-name="uni41" unicode="&#x41;" d="M547 0L483 176L197 176L134 0L21 0L282 700L403 700L667 0L547 0M340 572L232 272L448 272L340 572Z"  horiz-adv-x="687" vert-adv-y="1000"  />

      
      <glyph glyph-name="uni42" unicode="&#x42;" d="M106 3L106 698Q226 706 320 706Q466 706 522 665.50Q578 625 578 528Q578 401 463 367Q610 353 610 205Q610 92 545 42Q480-8 323-8Q199-8 106 3M218 95Q270 89 334 89Q427 89 462 115.50Q497 142 497 207Q497 267 462 291Q427 315 347 315L218 315L218 95M218 397L338 397Q409 397 438 423Q467 449 467 501Q467 568 440 589Q413 610 325 610Q252 610 218 607L218 397Z"  horiz-adv-x="671" vert-adv-y="1000"  />

      
      <glyph glyph-name="uni43" unicode="&#x43;" d="M584 679L584 559Q509 610 395 610Q286 610 234 552Q182 494 182 358Q182 211 237 151Q292 91 403 91Q509 91 600 145L600 33Q521-10 399-10Q226-10 145 75.50Q64 161 64 349Q64 536 145.50 623Q227 710 396 710Q488 710 584 679Z"  horiz-adv-x="658" vert-adv-y="1000"  />

      
      <glyph glyph-name="uni44" unicode="&#x44;" d="M106 4L106 699Q203 708 321 708Q520 708 601 627Q682 546 682 372Q682 172 589.50 82Q497-8 303-8Q219-8 106 4M218 97Q257 91 301 91Q443 91 504.50 152Q566 213 566 361Q566 499 512 554.50Q458 610 318 610Q278 610 218 604L218 97Z"  horiz-adv-x="746" vert-adv-y="1000"  />

      
      <glyph glyph-name="uni45" unicode="&#x45;" d="M106 0L106 700L550 700L550 602L218 602L218 403L519 403L519 307L218 307L218 98L550 98L550 0L106 0Z"  horiz-adv-x="616" vert-adv-y="1000"  />

      
      <glyph glyph-name="uni46" unicode="&#x46;" d="M106 0L106 700L537 700L537 602L218 602L218 378L521 378L521 280L218 280L218 0L106 0Z"  horiz-adv-x="595" vert-adv-y="1000"  />

      
      <glyph glyph-name="uni47" unicode="&#x47;" d="M398 269L398 363L645 363L645 33Q551-10 424-10Q239-10 151.50 75Q64 160 64 349Q64 534 153.50 622Q243 710 425 710Q534 710 596 679L596 566Q517 612 424 612Q297 612 238.50 552.50Q180 493 180 358Q180 210 240 149.50Q300 89 428 89Q492 89 544 103L544 269L398 269Z"  horiz-adv-x="712" vert-adv-y="1000"  />

      
      <glyph glyph-name="uni48" unicode="&#x48;" d="M106 0L106 700L218 700L218 408L577 408L577 700L688 700L688 0L577 0L577 310L218 310L218 0L106 0Z"  horiz-adv-x="794" vert-adv-y="1000"  />

      
      <glyph glyph-name="uni49" unicode="&#x49;" d="M110 0L110 700L222 700L222 0L110 0Z"  horiz-adv-x="332" vert-adv-y="1000"  />

      
      <glyph glyph-name="uni4a" unicode="&#x4a;" d="M196 178L196 700L307 700L307 170Q307 77 264.50 35.50Q222-6 122-6Q72-6 18 12L18 119Q29 109 57 101Q85 93 113 93Q159 93 177.50 111.50Q196 130 196 178Z"  horiz-adv-x="413" vert-adv-y="1000"  />

      
      <glyph glyph-name="uni4b" unicode="&#x4b;" d="M106 0L106 700L218 700L218 401L272 401L515 700L653 700L366 364L686 0L547 0L273 313L218 313L218 0L106 0Z"  horiz-adv-x="700" vert-adv-y="1000"  />

      
      <glyph glyph-name="uni4c" unicode="&#x4c;" d="M106 0L106 700L218 700L218 101L553 101L553 0L106 0Z"  horiz-adv-x="577" vert-adv-y="1000"  />

      
      <glyph glyph-name="uni4d" unicode="&#x4d;" d="M106 0L106 700L252 700L465 262L676 700L811 700L811 0L701 0L701 413Q701 457 707 561Q664 464 640 412L508 140L414 140L282 411Q275 426 250 480Q225 534 209 566Q216 473 216 414L216 0L106 0Z"  horiz-adv-x="917" vert-adv-y="1000"  />

      
      <glyph glyph-name="uni4e" unicode="&#x4e;" d="M106 0L106 700L223 700L519 268Q551 220 581 166Q576 228 576 286L576 700L686 700L686 0L570 0L289 415Q257 460 209 549Q216 474 216 418L216 0L106 0Z"  horiz-adv-x="792" vert-adv-y="1000"  />

      
      <glyph glyph-name="uni4f" unicode="&#x4f;" d="M64 350Q64 535 147.50 623Q231 711 403 711Q570 711 647.50 623.50Q725 536 725 350Q725 160 641 74.50Q557-11 395-11Q239-11 151.50 75.50Q64 162 64 350M182 348Q182 207 238 147.50Q294 88 399 88Q503 88 555.50 147Q608 206 608 348Q608 493 554.50 553Q501 613 394 613Q285 613 233.50 548.50Q182 484 182 348Z"  horiz-adv-x="790" vert-adv-y="1000"  />

      
      <glyph glyph-name="uni50" unicode="&#x50;" d="M106 0L106 695Q229 706 303 706Q463 706 531 651Q599 596 599 473Q599 339 528.50 276.50Q458 214 302 214Q255 214 218 218L218 0L106 0M218 313Q255 309 302 309Q402 309 442.50 344Q483 379 483 464Q483 545 444 577.50Q405 610 305 610Q255 610 218 606L218 313Z"  horiz-adv-x="652" vert-adv-y="1000"  />

      
      <glyph glyph-name="uni51" unicode="&#x51;" d="M64 350Q64 535 147.50 623Q231 711 403 711Q570 711 647.50 623.50Q725 536 725 350Q725 65 525 6L664-160L533-160L406-11L395-11Q239-11 151.50 75.50Q64 162 64 350M182 348Q182 207 238 147.50Q294 88 399 88Q503 88 555.50 147Q608 206 608 348Q608 493 554.50 553Q501 613 394 613Q285 613 233.50 548.50Q182 484 182 348Z"  horiz-adv-x="790" vert-adv-y="1000"  />

      
      <glyph glyph-name="uni52" unicode="&#x52;" d="M218 0L106 0L106 693Q227 706 308 706Q448 706 510 655.50Q572 605 573 493Q573 411 543.50 361Q514 311 441 284L652 0L523 0L325 268L218 268L218 0M217 355L300 355Q386 355 421.50 385.50Q457 416 457 485Q457 551 423.50 579Q390 607 303 607Q256 607 217 601L217 355Z"  horiz-adv-x="674" vert-adv-y="1000"  />

      
      <glyph glyph-name="uni53" unicode="&#x53;" d="M421 188Q421 218 406 240Q391 262 366.50 274Q342 286 310.50 298Q279 310 246.50 319.50Q214 329 182.50 345Q151 361 126.50 381Q102 401 87 435.50Q72 470 72 515Q72 612 131 661Q190 710 323 710Q436 710 511 674L511 552Q435 614 324 614Q247 614 216.50 592Q186 570 186 524Q186 492 205.50 469.50Q225 447 256.50 434.50Q288 422 325.50 411Q363 400 401 385Q439 370 470.50 348.50Q502 327 521.50 287.50Q541 248 541 194Q541-10 282-10Q220-10 161 5.50Q102 21 66 46L66 178Q155 87 278 87Q421 87 421 188Z"  horiz-adv-x="602" vert-adv-y="1000"  />

      
      <glyph glyph-name="uni54" unicode="&#x54;" d="M241 0L241 602L26 602L26 700L568 700L568 602L353 602L353 0L241 0Z"  horiz-adv-x="594" vert-adv-y="1000"  />

      
      <glyph glyph-name="uni55" unicode="&#x55;" d="M101 265L101 700L213 700L213 281Q213 221 224.50 182Q236 143 260 122.50Q284 102 313 94.50Q342 87 386 87Q464 87 501.50 123.50Q539 160 539 272L539 700L651 700L651 271Q651 114 580 51.50Q509-11 378-11Q235-11 168 54Q101 119 101 265Z"  horiz-adv-x="752" vert-adv-y="1000"  />

      
      <glyph glyph-name="uni56" unicode="&#x56;" d="M270 0L18 700L140 700L339 134L529 700L644 700L395 0L270 0Z"  horiz-adv-x="662" vert-adv-y="1000"  />

      
      <glyph glyph-name="uni57" unicode="&#x57;" d="M186 0L42 700L160 700L245 282Q255 232 265 154Q271 174 281 214Q291 254 299 280L429 700L544 700L672 284Q680 257 691 214.50Q702 172 707 154Q716 232 727 283L808 700L921 700L779 0L654 0L484 547L312 0L186 0Z"  horiz-adv-x="962" vert-adv-y="1000"  />

      
      <glyph glyph-name="uni58" unicode="&#x58;" d="M28 0L253 357L42 700L172 700L335 433L507 700L634 700L409 363L644 0L512 0L330 284L155 0L28 0Z"  horiz-adv-x="672" vert-adv-y="1000"  />

      
      <glyph glyph-name="uni59" unicode="&#x59;" d="M263 0L263 263L17 700L142 700L322 376L496 700L618 700L374 264L374 0L263 0Z"  horiz-adv-x="636" vert-adv-y="1000"  />

      
      <glyph glyph-name="uni5a" unicode="&#x5a;" d="M42 0L42 63L423 602L54 602L54 700L572 700L572 637L192 98L578 98L578 0L42 0Z"  horiz-adv-x="620" vert-adv-y="1000"  />

      
      <glyph glyph-name="uni5b" unicode="&#x5b;" d="M96-180L96 754L354 754L354 668L192 668L192-94L354-94L354-180L96-180Z"  horiz-adv-x="439" vert-adv-y="1000"  />

      
      <glyph glyph-name="uni5c" unicode="&#x5c;" d="M257-180L2 754L98 754L353-180L257-180Z"  horiz-adv-x="355" vert-adv-y="1000"  />

      
      <glyph glyph-name="uni5d" unicode="&#x5d;" d="M85-180L85-94L248-94L248 668L85 668L85 754L343 754L343-180L85-180Z"  horiz-adv-x="439" vert-adv-y="1000"  />

      
      <glyph glyph-name="uni5e" unicode="&#x5e;" d="M44 350L226 700L364 700L548 350L447 350L296 643L146 350L44 350Z"  horiz-adv-x="592" vert-adv-y="1000"  />

      
      <glyph glyph-name="uni5f" unicode="&#x5f;" d="M0-170L0-83L357-83L357-170L0-170Z"  horiz-adv-x="357" vert-adv-y="1000"  />

      
      <glyph glyph-name="uni60" unicode="&#x60;" d="M377 624L287 624L157 764L297 764L377 624Z"  horiz-adv-x="602" vert-adv-y="1000"  />

      
      <glyph glyph-name="uni61" unicode="&#x61;" d="M400 0L395 77Q374 39 330.50 14Q287-11 228-11Q145-11 99.50 31.50Q54 74 54 150Q54 237 105 274.50Q156 312 274 312L390 312L390 356Q390 412 362 432.50Q334 453 265 453Q219 453 173 436Q127 419 97 395L97 507Q167 545 280 545Q397 545 446.50 503.50Q496 462 496 358L496 0L400 0M161 164Q161 82 257 82Q323 82 356.50 115Q390 148 390 203L390 244L282 244Q212 244 186.50 226.50Q161 209 161 164Z"  horiz-adv-x="580" vert-adv-y="1000"  />

      
      <glyph glyph-name="uni62" unicode="&#x62;" d="M90 0L90 754L196 754L196 451Q244 544 370 544Q482 544 536 483Q590 422 590 278Q590 126 534.50 57.50Q479-11 363-11Q238-11 192 69L187 0L90 0M194 305L194 235Q194 158 232 119Q270 80 339 80Q417 80 450 124Q483 168 483 273Q483 376 449 415Q415 454 340 454Q196 454 194 305Z"  horiz-adv-x="647" vert-adv-y="1000"  />

      
      <glyph glyph-name="uni63" unicode="&#x63;" d="M472 517L472 406Q411 450 324 450Q246 450 205.50 409Q165 368 165 271Q165 171 208.50 128Q252 85 342 85Q432 85 487 130L487 25Q433-12 325-12Q189-12 122.50 55Q56 122 56 276Q56 413 123 479Q190 545 326 545Q414 545 472 517Z"  horiz-adv-x="541" vert-adv-y="1000"  />

      
      <glyph glyph-name="uni64" unicode="&#x64;" d="M459 0L454 92Q428 43 389 16Q350-11 279-11Q166-11 111 53Q56 117 56 261Q56 408 112.50 476Q169 544 285 544Q407 544 451 475L451 754L557 754L557 0L459 0M310 80Q454 80 452 239L452 314Q452 455 306 455Q230 455 197 413Q164 371 164 266Q164 165 198.50 122.50Q233 80 310 80Z"  horiz-adv-x="647" vert-adv-y="1000"  />

      
      <glyph glyph-name="uni65" unicode="&#x65;" d="M544 235L163 235Q164 78 333 78Q432 78 506 137L506 36Q481 18 433 3Q385-12 325-12Q186-12 121 56.50Q56 125 56 276Q56 407 121 476Q186 545 308 545Q544 545 544 292L544 235M307 457Q164 457 163 312L439 312Q439 386 407.50 421.50Q376 457 307 457Z"  horiz-adv-x="599" vert-adv-y="1000"  />

      
      <glyph glyph-name="uni66" unicode="&#x66;" d="M124 0L124 440L38 440L38 534L124 534L124 591Q124 683 169 721.50Q214 760 312 760Q366 760 402 750L402 650Q368 665 320 665Q267 665 248 647Q229 629 229 576L229 534L399 534L399 440L229 440L229 0L124 0Z"  horiz-adv-x="422" vert-adv-y="1000"  />

      
      <glyph glyph-name="uni67" unicode="&#x67;" d="M98-151L98-39Q126-60 177-78Q228-96 287-96Q373-96 412-65Q451-34 452 35L452 107Q404 16 279 16Q166 16 111 75.50Q56 135 56 268Q56 416 112.50 480Q169 544 292 544Q414 544 455 463L460 534L557 534L557 42Q557-79 490-133Q423-187 293-187Q176-187 98-151M307 106Q453 106 453 257L453 305Q453 387 416.50 420.50Q380 454 308 454Q236 454 200 413Q164 372 164 275Q164 106 307 106Z"  horiz-adv-x="648" vert-adv-y="1000"  />

      
      <glyph glyph-name="uni68" unicode="&#x68;" d="M90 0L90 754L196 754L196 453Q235 544 371 544Q468 544 511.50 500Q555 456 555 357L555 0L450 0L450 339Q450 401 422 427Q394 453 328 453Q260 453 228 420.50Q196 388 196 315L196 0L90 0Z"  horiz-adv-x="638" vert-adv-y="1000"  />

      
      <glyph glyph-name="uni69" unicode="&#x69;" d="M100 0L100 534L206 534L206 0L100 0M153 632Q153 632 121 632Q89 632 89 694Q89 756 153 756Q217 756 217 694Q217 632 153 632Z"  horiz-adv-x="306" vert-adv-y="1000"  />

      
      <glyph glyph-name="uni6a" unicode="&#x6a;" d="M100-5L100 534L206 534L206 2Q206-96 168.50-141Q131-186 46-186Q-7-186-39-173L-39-73Q-9-91 34-91Q69-91 84.50-71Q100-51 100-5M153 632Q153 632 121 632Q89 632 89 694Q89 756 153 756Q217 756 217 694Q217 632 153 632Z"  horiz-adv-x="306" vert-adv-y="1000"  />

      
      <glyph glyph-name="uni6b" unicode="&#x6b;" d="M90 754L196 754L196 317L243 317L420 534L539 534L330 282L568 0L440 0L241 232L196 232L196 0L90 0L90 754Z"  horiz-adv-x="586" vert-adv-y="1000"  />

      
      <glyph glyph-name="uni6c" unicode="&#x6c;" d="M196 159Q196 116 211 100.50Q226 85 264 85Q295 85 333 97L333 7Q299-10 240-10Q167-10 129 22.50Q91 55 91 129L91 754L196 754L196 159Z"  horiz-adv-x="356" vert-adv-y="1000"  />

      
      <glyph glyph-name="uni6d" unicode="&#x6d;" d="M90 0L90 534L189 534L194 446Q211 491 253 517.50Q295 544 355 544Q418 544 455.50 516.50Q493 489 502 444Q543 544 677 544Q764 544 803.50 501.50Q843 459 843 371L843 0L738 0L738 335Q738 399 713 424Q688 449 629 449Q519 449 519 324L519 0L414 0L414 343Q414 403 388.50 426Q363 449 311 449Q255 449 225 419Q195 389 195 330L195 0L90 0Z"  horiz-adv-x="927" vert-adv-y="1000"  />

      
      <glyph glyph-name="uni6e" unicode="&#x6e;" d="M90 0L90 534L190 534L195 452Q245 544 369 544Q467 544 511 499Q555 454 555 344L555 0L450 0L450 317Q450 395 424.50 424Q399 453 329 453Q263 453 229.50 417Q196 381 196 315L196 0L90 0Z"  horiz-adv-x="638" vert-adv-y="1000"  />

      
      <glyph glyph-name="uni6f" unicode="&#x6f;" d="M122 60.50Q122 60.50 89 96.75Q56 133 56 269Q56 405 127.50 475Q199 545 325 545Q577 545 577 266Q577 124 507.50 56Q438-12 316-12Q188-12 122 60.50M163 269L163 265Q163 175 203 127Q243 79 322 79Q470 79 470 265L470 269Q470 456 316 456Q163 456 163 269Z"  horiz-adv-x="633" vert-adv-y="1000"  />

      
      <glyph glyph-name="uni70" unicode="&#x70;" d="M89-180L89 534L187 534L192 444Q236 544 379 544Q488 544 539 481.50Q590 419 590 277Q590 126 535 57.50Q480-11 365-11Q245-11 195 70L195-180L89-180M195 224Q195 156 232 118Q269 80 339 80Q418 80 450.50 124Q483 168 483 273Q483 371 448 412.50Q413 454 339 454Q267 454 231 415.50Q195 377 195 312L195 224Z"  horiz-adv-x="647" vert-adv-y="1000"  />

      
      <glyph glyph-name="uni71" unicode="&#x71;" d="M451-180L451 82Q402-11 285-11Q171-11 113.50 51Q56 113 56 255Q56 407 114 475.50Q172 544 293 544Q408 544 455 463L461 534L557 534L557-180L451-180M314 80Q384 80 417.50 119.50Q451 159 451 226L451 311Q451 454 308 454Q233 454 198.50 409Q164 364 164 261Q164 159 199.50 119.50Q235 80 314 80Z"  horiz-adv-x="647" vert-adv-y="1000"  />

      
      <glyph glyph-name="uni72" unicode="&#x72;" d="M90 0L90 534L186 534L191 460Q209 500 249 522.50Q289 545 337 545Q368 545 387 541L387 427Q357 452 310 452Q196 452 196 313L196 0L90 0Z"  horiz-adv-x="423" vert-adv-y="1000"  />

      
      <glyph glyph-name="uni73" unicode="&#x73;" d="M435 516L435 404Q364 458 283 458Q227 458 203.50 443.50Q180 429 180 395Q180 369 201 352.50Q222 336 253 329Q284 322 320.50 311Q357 300 388 286Q419 272 440 240Q461 208 461 161Q461 74 410 31Q359-12 251-12Q145-12 65 28L65 145Q97 115 148 96Q199 77 250 77Q355 77 355 155Q355 185 326 202Q297 219 255.50 229Q214 239 173 253Q132 267 103 301Q74 335 74 389Q74 467 121 506Q168 545 279 545Q363 545 435 516Z"  horiz-adv-x="521" vert-adv-y="1000"  />

      
      <glyph glyph-name="uni74" unicode="&#x74;" d="M136 169L136 443L26 443L26 534L136 534L136 637L241 675L241 534L425 534L425 443L241 443L241 179Q241 127 261 105.50Q281 84 326 84Q392 84 441 114L441 19Q395-10 309-10Q219-10 177.50 31.50Q136 73 136 169Z"  horiz-adv-x="479" vert-adv-y="1000"  />

      
      <glyph glyph-name="uni75" unicode="&#x75;" d="M445 0L440 83Q389-11 264-11Q174-11 129.50 34.50Q85 80 85 179L85 534L191 534L191 208Q191 138 216.50 109.50Q242 81 306 81Q377 81 408 114.50Q439 148 439 222L439 534L544 534L544 0L445 0Z"  horiz-adv-x="634" vert-adv-y="1000"  />

      
      <glyph glyph-name="uni76" unicode="&#x76;" d="M230 0L27 534L145 534L285 128L425 534L537 534L332 0L230 0Z"  horiz-adv-x="563" vert-adv-y="1000"  />

      
      <glyph glyph-name="uni77" unicode="&#x77;" d="M162 0L32 534L143 534L233 131L365 534L470 534L604 135L692 534L797 534L666 0L547 0L417 406L280 0L162 0Z"  horiz-adv-x="829" vert-adv-y="1000"  />

      
      <glyph glyph-name="uni78" unicode="&#x78;" d="M22 0L206 274L35 534L159 534L278 348L398 534L518 534L344 279L529 0L404 0L273 204L142 0L22 0Z"  horiz-adv-x="551" vert-adv-y="1000"  />

      
      <glyph glyph-name="uni79" unicode="&#x79;" d="M165-93Q194-93 211-76Q228-59 247-2L26 534L147 534L299 132L424 534L534 534L351 17Q327-51 304.50-94Q282-137 258.50-156.50Q235-176 216.50-182Q198-188 171-188Q132-188 112-178L113-79Q139-93 165-93Z"  horiz-adv-x="553" vert-adv-y="1000"  />

      
      <glyph glyph-name="uni7a" unicode="&#x7a;" d="M42 0L42 62L335 443L59 443L59 534L479 534L479 473L184 92L482 92L482 0L42 0Z"  horiz-adv-x="527" vert-adv-y="1000"  />

      
      <glyph glyph-name="uni7b" unicode="&#x7b;" d="M163-15L163 131Q163 184 132 212Q101 240 58 241L58 325Q99 326 131 356.50Q163 387 163 437L163 588Q163 671 200 712.50Q237 754 326 754L416 754L416 668L340 668Q297 668 278 647Q259 626 259 581L259 433Q259 373 234 337Q209 301 150 283Q259 258 259 126L259-7Q259-52 278-73Q297-94 340-94L416-94L416-180L326-180Q237-180 200-138.50Q163-97 163-15Z"  horiz-adv-x="501" vert-adv-y="1000"  />

      
      <glyph glyph-name="uni7c" unicode="&#x7c;" d="M109-180L109 754L212 754L212-180L109-180Z"  horiz-adv-x="321" vert-adv-y="1000"  />

      
      <glyph glyph-name="uni7d" unicode="&#x7d;" d="M338-15Q338-97 301-138.50Q264-180 175-180L85-180L85-94L161-94Q204-94 223-73Q242-52 242-7L242 138Q242 199 267 234.50Q292 270 351 288Q242 314 242 445L242 581Q242 626 223 647Q204 668 161 668L85 668L85 754L175 754Q264 754 301 712.50Q338 671 338 588L338 440Q338 387 369 359Q400 331 443 330L443 246Q402 245 370 214.50Q338 184 338 134L338-15Z"  horiz-adv-x="501" vert-adv-y="1000"  />

      
      <glyph glyph-name="uni7e" unicode="&#x7e;" d="M91 277L91 369Q138 414 204 414Q249 414 322.50 372.50Q396 331 432 331Q486 331 520 379L520 282Q476 240 418 240Q370 240 299.50 281.50Q229 323 200 323Q140 323 91 277Z"  horiz-adv-x="610" vert-adv-y="1000"  />

      
      <glyph glyph-name="unia1" unicode="&#xa1;" d="M139 473Q139 544 213 544Q288 544 288 473Q288 401 213 401Q139 401 139 473M160 299L265 299L269-167L157-167L160 299Z"  horiz-adv-x="386" vert-adv-y="1000"  />

      
      <glyph glyph-name="unia2" unicode="&#xa2;" d="M280-120L280-6Q178 6 128 77Q78 148 78 267Q78 383 129.50 452Q181 521 280 532L280 634L346 634L346 534Q399 532 458 514L458 424Q401 445 342 445Q186 445 186 274Q186 82 352 82Q419 82 465 105L465 16Q418-5 346-9L346-120L280-120Z"  horiz-adv-x="560" vert-adv-y="1000"  />

      
      <glyph glyph-name="unia3" unicode="&#xa3;" d="M63 0L63 99L148 99L148 332L63 332L63 407L148 407L148 479Q148 511 152.50 539.50Q157 568 172 600.50Q187 633 211 656Q235 679 278 694.50Q321 710 378 710Q446 710 500 693L500 596Q440 612 386 612Q260 612 260 476L260 407L418 407L418 332L260 332L260 99L505 99L505 0L63 0Z"  horiz-adv-x="564" vert-adv-y="1000"  />

      
      <glyph glyph-name="unia4" unicode="&#xa4;" d="M94 106L41 159L102 225Q66 280 66 349Q66 419 102 474L41 541L94 596L155 529Q206 567 277 567Q349 567 400 530L463 596L516 543L454 474Q490 419 490 349Q490 280 454 225L516 159L462 105L402 169Q348 132 277 132Q203 132 155 169L94 106M142 349Q142 285 181.50 246.50Q221 208 278 208Q336 208 375 246Q414 284 414 349Q414 413 374.50 452Q335 491 278 491Q222 491 182 451.50Q142 412 142 349Z"  horiz-adv-x="556" vert-adv-y="1000"  />

      
      <glyph glyph-name="unia5" unicode="&#xa5;" d="M112 164L112 231L248 231L248 285L239 301L112 301L112 367L206 367L37 700L166 700L305 405L440 700L570 700L401 367L495 367L495 301L367 301L359 285L359 231L495 231L495 164L359 164L359 0L248 0L248 164L112 164Z"  horiz-adv-x="606" vert-adv-y="1000"  />

      
      <glyph glyph-name="unia6" unicode="&#xa6;" d="M121-180L121 212L218 212L218-180L121-180M121 362L121 754L218 754L218 362L121 362Z"  horiz-adv-x="339" vert-adv-y="1000"  />

      
      <glyph glyph-name="unia7" unicode="&#xa7;" d="M411 686L411 591Q339 620 273 620Q174 620 174 553Q174 526 193 509Q212 492 271 463Q283 456 318 440Q349 424 365.50 414Q382 404 404.50 385.50Q427 367 437 344.50Q447 322 447 293Q447 218 370 159Q430 113 430 49Q430-33 368.50-75.50Q307-118 219-118Q125-118 58-89L58 9Q132-30 209-30Q266-30 291.50-8.50Q317 13 317 42Q317 74 295.50 91.50Q274 109 211 139Q181 152 160 164Q45 218 45 309Q45 381 123 437Q61 478 61 550Q61 624 115.50 667Q170 710 270 710Q339 710 411 686M150 326Q150 294 172 270.50Q194 247 245 223Q249 222 274.50 209.50Q300 197 304 195Q342 237 342 275Q342 330 255 371Q245 375 193 401Q150 368 150 326Z"  horiz-adv-x="492" vert-adv-y="1000"  />

      
      <glyph glyph-name="unia8" unicode="&#xa8;" d="M203 634Q203 634 172 634Q141 634 141 694Q141 754 203 754Q265 754 265 694Q265 634 203 634M399 634Q399 634 368 634Q337 634 337 694Q337 754 399 754Q461 754 461 694Q461 634 399 634Z"  horiz-adv-x="602" vert-adv-y="1000"  />

      
      <glyph glyph-name="unia9" unicode="&#xa9;" d="M73 277Q73 448 181 555.50Q289 663 461 663Q634 663 742 555.50Q850 448 850 277Q850 106 742-1Q634-108 461-108Q289-108 181-0.50Q73 107 73 277M239 502.50Q239 502.50 196 459.25Q153 416 153 278Q153 140 239.50 53Q326-34 461-34Q597-34 683.50 53Q770 140 770 278Q770 416 683.50 502.50Q597 589 461 589Q325 589 239 502.50M558 468L558 402Q532 413 486 413Q424 413 394 382Q364 351 364 285Q364 216 395 186.50Q426 157 487 157Q530 157 559 170L559 100Q525 87 476 87Q287 87 287 283Q287 480 475 480Q525 480 558 468Z"  horiz-adv-x="923" vert-adv-y="1000"  />

      
      <glyph glyph-name="uniaa" unicode="&#xaa;" d="M254 368L254 420L253 420Q220 362 150 362Q95 362 66 389Q37 416 37 466Q37 572 183 572Q218 572 248 568L248 587Q248 616 232 630Q216 644 173 644Q119 644 68 622L68 689Q123 710 186 710Q267 710 299 679Q331 648 331 578L331 368L254 368M122 473Q122 429 177 429Q212 429 230 448.50Q248 468 248 497L248 516Q209 519 196 519Q155 519 138.50 508Q122 497 122 473Z"  horiz-adv-x="376" vert-adv-y="1000"  />

      
      <glyph glyph-name="uniab" unicode="&#xab;" d="M192 44L56 260L194 481L299 481L165 262L300 44L192 44M415 44L279 260L417 481L522 481L388 262L523 44L415 44Z"  horiz-adv-x="595" vert-adv-y="1000"  />

      
      <glyph glyph-name="uniac" unicode="&#xac;" d="M39 317L39 402L562 402L562 158L472 158L472 317L39 317Z"  horiz-adv-x="617" vert-adv-y="1000"  />

      
      <glyph glyph-name="uniad" unicode="&#xad;" d="M96 245L96 340L379 340L379 245L96 245Z"  horiz-adv-x="475" vert-adv-y="1000"  />

      
      <glyph glyph-name="uniae" unicode="&#xae;" d="M119.50 347Q119.50 347 84.75 381.50Q50 416 50 526Q50 636 119.50 705Q189 774 300 774Q412 774 481 705Q550 636 550 526Q550 416 481 347Q412 278 300 278Q189 278 119.50 347M158 670Q158 670 130.50 642.50Q103 615 103 527Q103 439 158 383Q213 327 300 327Q388 327 442.50 382.50Q497 438 497 527Q497 615 442.50 670Q388 725 300 725Q213 725 158 670M202 398L202 667L315 667Q401 667 401 583Q401 554 387 533.50Q373 513 353 507L421 398L353 398L293 499L261 499L261 398L202 398M261 548L304 548Q339 548 339 583Q339 615 305 615L261 615L261 548Z"  horiz-adv-x="600" vert-adv-y="1000"  />

      
      <glyph glyph-name="uniaf" unicode="&#xaf;" d="M156 656L156 732L446 732L446 656L156 656Z"  horiz-adv-x="602" vert-adv-y="1000"  />

      
      <glyph glyph-name="unib0" unicode="&#xb0;" d="M53 549Q53 627 94.50 669Q136 711 204 711Q272 711 315 670Q358 629 358 549Q358 467 317 426Q276 385 209 385Q137 385 95 426Q53 467 53 549M206 634Q206 634 168.50 634Q131 634 131 548Q131 462 208 462Q280 462 281 548Q281 634 206 634Z"  horiz-adv-x="410" vert-adv-y="1000"  />

      
      <glyph glyph-name="unib1" unicode="&#xb1;" d="M83 77L83 168L521 168L521 77L83 77M83 385L83 475L258 475L258 628L345 628L345 475L521 475L521 385L345 385L345 231L258 231L258 385L83 385Z"  horiz-adv-x="603" vert-adv-y="1000"  />

      
      <glyph glyph-name="unib2" unicode="&#xb2;" d="M52 382L52 464L175 548Q238 591 262.50 617.50Q287 644 287 673Q287 733 197 733Q114 733 67 706L67 787Q133 810 208 810Q289 810 335.50 780Q382 750 382 690Q382 640 344.50 595Q307 550 223 500L160 461L160 460L387 460L387 382L52 382Z"  horiz-adv-x="450" vert-adv-y="1000"  />

      
      <glyph glyph-name="unib3" unicode="&#xb3;" d="M132 566L132 631L210 631Q256 631 277 643Q298 655 298 683Q298 709 276 721Q254 733 203 733Q118 733 72 714L72 790Q125 810 229 810Q308 810 349 780.50Q390 751 390 702Q390 661 365 639Q340 617 288 602L288 601Q400 584 400 501Q400 439 347 406.50Q294 374 212 374Q117 374 66 393L66 471Q112 451 202 451Q306 451 306 505Q306 539 285 552.50Q264 566 218 566L132 566Z"  horiz-adv-x="450" vert-adv-y="1000"  />

      
      <glyph glyph-name="unib4" unicode="&#xb4;" d="M241 624L321 764L461 764L331 624L241 624Z"  horiz-adv-x="602" vert-adv-y="1000"  />

      
      <glyph glyph-name="unib5" unicode="&#xb5;" d="M458 0L453 83Q401-11 271-11Q221-11 188 5L188-210L85-210L85 534L195 534L195 210Q195 141 222 113Q249 85 315 85Q388 85 419.50 118Q451 151 451 224L451 534L561 534L561 0L458 0Z"  horiz-adv-x="651" vert-adv-y="1000"  />

      
      <glyph glyph-name="uni03BC" unicode="&#x03BC;" d="M458 0L453 83Q401-11 271-11Q221-11 188 5L188-210L85-210L85 534L195 534L195 210Q195 141 222 113Q249 85 315 85Q388 85 419.50 118Q451 151 451 224L451 534L561 534L561 0L458 0Z"  horiz-adv-x="651" vert-adv-y="1000"  />

      
      <glyph glyph-name="unib6" unicode="&#xb6;" d="M228-210L228 349Q150 349 106 396Q62 443 62 520Q62 700 270 700L464 700L464-210L389-210L389 629L304 629L304-210L228-210Z"  horiz-adv-x="559" vert-adv-y="1000"  />

      
      <glyph glyph-name="unib7" unicode="&#xb7;" d="M75 297Q75 297 66 306Q57 315 57 347Q57 379 74.50 397Q92 415 124 415Q156 415 174.50 396.50Q193 378 193 347Q193 315 175 297Q157 279 124 279Q93 279 75 297Z"  horiz-adv-x="249" vert-adv-y="1000"  />

      
      <glyph glyph-name="unib8" unicode="&#xb8;" d="M238-97L252 0L313 0L305-47Q405-49 405-134Q405-177 373-204.50Q341-232 289-232Q242-232 207-217L215-160Q244-173 274-173Q323-173 323-130Q323-95 273-95Q247-95 238-97Z"  horiz-adv-x="602" vert-adv-y="1000"  />

      
      <glyph glyph-name="unib9" unicode="&#xb9;" d="M219 382L219 700L101 644L65 712L239 800L312 800L312 382L219 382Z"  horiz-adv-x="450" vert-adv-y="1000"  />

      
      <glyph glyph-name="uniba" unicode="&#xba;" d="M35 537Q35 621 77.50 665.50Q120 710 199 710Q366 710 366 537Q366 452 323 407Q280 362 199 362Q119 362 77 406.50Q35 451 35 537M121 537Q121 431 199 431Q240 431 260 455.50Q280 480 280 537Q280 593 260 617Q240 641 199 641Q121 641 121 537Z"  horiz-adv-x="401" vert-adv-y="1000"  />

      
      <glyph glyph-name="unibb" unicode="&#xbb;" d="M539 260L404 44L295 44L431 262L296 481L401 481L539 260M316 260L181 44L72 44L208 262L73 481L178 481L316 260Z"  horiz-adv-x="595" vert-adv-y="1000"  />

      
      <glyph glyph-name="unibc" unicode="&#xbc;" d="M160-4L710 704L804 704L256-4L160-4M491 87L491 158L733 420L838 420L838 162L894 162L894 87L838 87L838 2L753 2L753 87L491 87M753 162L753 336L752 336L590 162L753 162M205 282L205 600L87 544L51 612L225 700L298 700L298 282L205 282Z"  horiz-adv-x="950" vert-adv-y="1000"  />

      
      <glyph glyph-name="unibd" unicode="&#xbd;" d="M116-4L666 704L760 704L212-4L116-4M566 2L566 84L689 168Q752 211 776.50 237.50Q801 264 801 293Q801 353 711 353Q628 353 581 326L581 407Q647 430 722 430Q803 430 849.50 400Q896 370 896 310Q896 260 858.50 215Q821 170 737 120L674 81L674 80L901 80L901 2L566 2M196 282L196 600L78 544L42 612L216 700L289 700L289 282L196 282Z"  horiz-adv-x="950" vert-adv-y="1000"  />

      
      <glyph glyph-name="unibe" unicode="&#xbe;" d="M177-4L727 704L821 704L273-4L177-4M505 87L505 158L747 420L852 420L852 162L908 162L908 87L852 87L852 2L767 2L767 87L505 87M767 162L767 336L766 336L604 162L767 162M124 466L124 531L202 531Q248 531 269 543Q290 555 290 583Q290 609 268 621Q246 633 195 633Q110 633 64 614L64 690Q117 710 221 710Q300 710 341 680.50Q382 651 382 602Q382 561 357 539Q332 517 280 502L280 501Q392 484 392 401Q392 339 339 306.50Q286 274 204 274Q109 274 58 293L58 371Q104 351 194 351Q298 351 298 405Q298 439 277 452.50Q256 466 210 466L124 466Z"  horiz-adv-x="950" vert-adv-y="1000"  />

      
      <glyph glyph-name="unibf" unicode="&#xbf;" d="M419 298Q419 258 403.50 227.50Q388 197 364.50 180Q341 163 313.50 145Q286 127 262.50 112Q239 97 223.50 72.50Q208 48 208 16Q208-29 243.50-54.50Q279-80 347-80Q435-80 509-37L509-150Q436-178 334-178Q99-178 99 8Q99 61 122 100Q145 139 177.50 161.50Q210 184 242 202.50Q274 221 297 244.50Q320 268 320 298L419 298M444 471Q444 399 369 399Q294 399 294 471Q294 542 369 542Q407 542 425.50 522.50Q444 503 444 471Z"  horiz-adv-x="591" vert-adv-y="1000"  />

      
      <glyph glyph-name="unic0" unicode="&#xc0;" d="M547 0L483 176L197 176L134 0L21 0L282 700L403 700L667 0L547 0M340 572L232 272L448 272L340 572M159 915L303 915L389 765L295 765L159 915Z"  horiz-adv-x="687" vert-adv-y="1000"  />

      
      <glyph glyph-name="unic1" unicode="&#xc1;" d="M547 0L483 176L197 176L134 0L21 0L282 700L403 700L667 0L547 0M340 572L232 272L448 272L340 572M298 765L386 915L528 915L390 765L298 765Z"  horiz-adv-x="687" vert-adv-y="1000"  />

      
      <glyph glyph-name="unic2" unicode="&#xc2;" d="M547 0L483 176L197 176L134 0L21 0L282 700L403 700L667 0L547 0M340 572L232 272L448 272L340 572M173 765L286 915L400 915L513 765L415 765L343 857L271 765L173 765Z"  horiz-adv-x="687" vert-adv-y="1000"  />

      
      <glyph glyph-name="unic3" unicode="&#xc3;" d="M547 0L483 176L197 176L134 0L21 0L282 700L403 700L667 0L547 0M340 572L232 272L448 272L340 572M245 776L178 789Q181 842 208.50 873Q236 904 277 904Q302 904 352 878Q396 856 409 856Q436 856 443 904L508 890Q504 837 477 806.50Q450 776 413 776Q388 776 337 802Q328 806 317 813Q306 820 299.50 822.50Q293 825 283 825Q252 825 245 776Z"  horiz-adv-x="687" vert-adv-y="1000"  />

      
      <glyph glyph-name="unic4" unicode="&#xc4;" d="M547 0L483 176L197 176L134 0L21 0L282 700L403 700L667 0L547 0M340 572L232 272L448 272L340 572M243 778Q243 778 211 778Q179 778 179 840Q179 902 243 902Q307 902 307 840Q307 778 243 778M445 778Q445 778 413 778Q381 778 381 840Q381 902 445 902Q509 902 509 840Q509 778 445 778Z"  horiz-adv-x="687" vert-adv-y="1000"  />

      
      <glyph glyph-name="unic5" unicode="&#xc5;" d="M547 0L483 176L197 176L134 0L21 0L282 700L403 700L667 0L547 0M340 572L232 272L448 272L340 572M274.50 769Q274.50 769 260.25 782.50Q246 796 246 840Q246 884 274.50 911Q303 938 344 938Q386 938 414 911.50Q442 885 442 840Q442 796 414 769Q386 742 344 742Q303 742 274.50 769M313 871Q313 871 307.50 865.50Q302 860 302 840Q302 820 313 809Q324 798 344 798Q364 798 375 809Q386 820 386 840Q386 860 375 871Q364 882 344 882Q324 882 313 871Z"  horiz-adv-x="687" vert-adv-y="1000"  />

      
      <glyph glyph-name="unic6" unicode="&#xc6;" d="M475 0L475 176L235 176L137 0L21 0L416 700L907 700L907 602L587 602L587 403L884 403L884 307L587 307L587 98L915 98L915 0L475 0M290 273L475 273L475 603L290 273Z"  horiz-adv-x="982" vert-adv-y="1000"  />

      
      <glyph glyph-name="unic7" unicode="&#xc7;" d="M333-104L346-8Q201 4 132.50 90Q64 176 64 349Q64 536 145.50 623Q227 710 396 710Q488 710 584 679L584 559Q509 610 395 610Q286 610 234 552Q182 494 182 358Q182 211 237 151Q292 91 403 91Q509 91 600 145L600 33Q524-7 411-10L405-50Q513-52 513-138Q513-184 477-213Q441-242 386-242Q333-242 298-226L307-168Q337-181 371-181Q425-181 425-138Q425-101 370-101Q343-101 333-104Z"  horiz-adv-x="658" vert-adv-y="1000"  />

      
      <glyph glyph-name="unic8" unicode="&#xc8;" d="M106 0L106 700L550 700L550 602L218 602L218 403L519 403L519 307L218 307L218 98L550 98L550 0L106 0M142 915L286 915L372 765L278 765L142 915Z"  horiz-adv-x="616" vert-adv-y="1000"  />

      
      <glyph glyph-name="unic9" unicode="&#xc9;" d="M106 0L106 700L550 700L550 602L218 602L218 403L519 403L519 307L218 307L218 98L550 98L550 0L106 0M281 765L369 915L511 915L373 765L281 765Z"  horiz-adv-x="616" vert-adv-y="1000"  />

      
      <glyph glyph-name="unica" unicode="&#xca;" d="M106 0L106 700L550 700L550 602L218 602L218 403L519 403L519 307L218 307L218 98L550 98L550 0L106 0M156 765L269 915L383 915L496 765L398 765L326 857L254 765L156 765Z"  horiz-adv-x="616" vert-adv-y="1000"  />

      
      <glyph glyph-name="unicb" unicode="&#xcb;" d="M106 0L106 700L550 700L550 602L218 602L218 403L519 403L519 307L218 307L218 98L550 98L550 0L106 0M227 778Q227 778 195 778Q163 778 163 840Q163 902 227 902Q291 902 291 840Q291 778 227 778M429 778Q429 778 397 778Q365 778 365 840Q365 902 429 902Q493 902 493 840Q493 778 429 778Z"  horiz-adv-x="616" vert-adv-y="1000"  />

      
      <glyph glyph-name="unicc" unicode="&#xcc;" d="M110 0L110 700L222 700L222 0L110 0M-19 915L125 915L211 765L117 765L-19 915Z"  horiz-adv-x="332" vert-adv-y="1000"  />

      
      <glyph glyph-name="unicd" unicode="&#xcd;" d="M110 0L110 700L222 700L222 0L110 0M120 765L208 915L350 915L212 765L120 765Z"  horiz-adv-x="332" vert-adv-y="1000"  />

      
      <glyph glyph-name="unice" unicode="&#xce;" d="M110 0L110 700L222 700L222 0L110 0M-4 765L109 915L223 915L336 765L238 765L166 857L94 765L-4 765Z"  horiz-adv-x="332" vert-adv-y="1000"  />

      
      <glyph glyph-name="unicf" unicode="&#xcf;" d="M110 0L110 700L222 700L222 0L110 0M65 778Q65 778 33 778Q1 778 1 840Q1 902 65 902Q129 902 129 840Q129 778 65 778M267 778Q267 778 235 778Q203 778 203 840Q203 902 267 902Q331 902 331 840Q331 778 267 778Z"  horiz-adv-x="332" vert-adv-y="1000"  />

      
      <glyph glyph-name="unid0" unicode="&#xd0;" d="M30 313L30 394L106 394L106 699Q203 708 321 708Q520 708 601 627Q682 546 682 372Q682 172 589.50 82Q497-8 303-8Q219-8 106 4L106 313L30 313M218 97Q257 91 301 91Q443 91 504.50 152Q566 213 566 361Q566 499 512 554.50Q458 610 318 610Q278 610 218 604L218 394L406 394L406 313L218 313L218 97Z"  horiz-adv-x="746" vert-adv-y="1000"  />

      
      <glyph glyph-name="unid1" unicode="&#xd1;" d="M106 0L106 700L223 700L519 268Q551 220 581 166Q576 228 576 286L576 700L686 700L686 0L570 0L289 415Q257 460 209 549Q216 474 216 418L216 0L106 0M298 776L231 789Q234 842 261.50 873Q289 904 330 904Q355 904 405 878Q449 856 462 856Q489 856 496 904L561 890Q557 837 530 806.50Q503 776 466 776Q441 776 390 802Q381 806 370 813Q359 820 352.50 822.50Q346 825 336 825Q305 825 298 776Z"  horiz-adv-x="792" vert-adv-y="1000"  />

      
      <glyph glyph-name="unid2" unicode="&#xd2;" d="M64 350Q64 535 147.50 623Q231 711 403 711Q570 711 647.50 623.50Q725 536 725 350Q725 160 641 74.50Q557-11 395-11Q239-11 151.50 75.50Q64 162 64 350M182 348Q182 207 238 147.50Q294 88 399 88Q503 88 555.50 147Q608 206 608 348Q608 493 554.50 553Q501 613 394 613Q285 613 233.50 548.50Q182 484 182 348M211 915L355 915L441 765L347 765L211 915Z"  horiz-adv-x="790" vert-adv-y="1000"  />

      
      <glyph glyph-name="unid3" unicode="&#xd3;" d="M64 350Q64 535 147.50 623Q231 711 403 711Q570 711 647.50 623.50Q725 536 725 350Q725 160 641 74.50Q557-11 395-11Q239-11 151.50 75.50Q64 162 64 350M182 348Q182 207 238 147.50Q294 88 399 88Q503 88 555.50 147Q608 206 608 348Q608 493 554.50 553Q501 613 394 613Q285 613 233.50 548.50Q182 484 182 348M349 765L437 915L579 915L441 765L349 765Z"  horiz-adv-x="790" vert-adv-y="1000"  />

      
      <glyph glyph-name="unid4" unicode="&#xd4;" d="M64 350Q64 535 147.50 623Q231 711 403 711Q570 711 647.50 623.50Q725 536 725 350Q725 160 641 74.50Q557-11 395-11Q239-11 151.50 75.50Q64 162 64 350M182 348Q182 207 238 147.50Q294 88 399 88Q503 88 555.50 147Q608 206 608 348Q608 493 554.50 553Q501 613 394 613Q285 613 233.50 548.50Q182 484 182 348M225 765L338 915L452 915L565 765L467 765L395 857L323 765L225 765Z"  horiz-adv-x="790" vert-adv-y="1000"  />

      
      <glyph glyph-name="unid5" unicode="&#xd5;" d="M64 350Q64 535 147.50 623Q231 711 403 711Q570 711 647.50 623.50Q725 536 725 350Q725 160 641 74.50Q557-11 395-11Q239-11 151.50 75.50Q64 162 64 350M182 348Q182 207 238 147.50Q294 88 399 88Q503 88 555.50 147Q608 206 608 348Q608 493 554.50 553Q501 613 394 613Q285 613 233.50 548.50Q182 484 182 348M297 776L230 789Q233 842 260.50 873Q288 904 329 904Q354 904 404 878Q448 856 461 856Q488 856 495 904L560 890Q556 837 529 806.50Q502 776 465 776Q440 776 389 802Q380 806 369 813Q358 820 351.50 822.50Q345 825 335 825Q304 825 297 776Z"  horiz-adv-x="790" vert-adv-y="1000"  />

      
      <glyph glyph-name="unid6" unicode="&#xd6;" d="M64 350Q64 535 147.50 623Q231 711 403 711Q570 711 647.50 623.50Q725 536 725 350Q725 160 641 74.50Q557-11 395-11Q239-11 151.50 75.50Q64 162 64 350M182 348Q182 207 238 147.50Q294 88 399 88Q503 88 555.50 147Q608 206 608 348Q608 493 554.50 553Q501 613 394 613Q285 613 233.50 548.50Q182 484 182 348M293 778Q293 778 261 778Q229 778 229 840Q229 902 293 902Q357 902 357 840Q357 778 293 778M495 778Q495 778 463 778Q431 778 431 840Q431 902 495 902Q559 902 559 840Q559 778 495 778Z"  horiz-adv-x="790" vert-adv-y="1000"  />

      
      <glyph glyph-name="unid7" unicode="&#xd7;" d="M88 179L225 324L88 470L151 531L284 389L419 531L482 470L345 324L482 179L419 118L284 260L151 118L88 179Z"  horiz-adv-x="570" vert-adv-y="1000"  />

      
      <glyph glyph-name="unid8" unicode="&#xd8;" d="M64 350Q64 535 147.50 623Q231 711 403 711Q514 711 584 673L630 736L693 691L645 626Q725 539 725 350Q725 160 641 74.50Q557-11 395-11Q284-11 210 31L155-44L92 1L149 78Q64 169 64 350M182 348Q182 236 219 174L519 584Q470 613 394 613Q285 613 233.50 548.50Q182 484 182 348M608 348Q608 465 573 527L273 117Q320 88 399 88Q503 88 555.50 147Q608 206 608 348Z"  horiz-adv-x="790" vert-adv-y="1000"  />

      
      <glyph glyph-name="unid9" unicode="&#xd9;" d="M101 265L101 700L213 700L213 281Q213 221 224.50 182Q236 143 260 122.50Q284 102 313 94.50Q342 87 386 87Q464 87 501.50 123.50Q539 160 539 272L539 700L651 700L651 271Q651 114 580 51.50Q509-11 378-11Q235-11 168 54Q101 119 101 265M192 915L336 915L422 765L328 765L192 915Z"  horiz-adv-x="752" vert-adv-y="1000"  />

      
      <glyph glyph-name="unida" unicode="&#xda;" d="M101 265L101 700L213 700L213 281Q213 221 224.50 182Q236 143 260 122.50Q284 102 313 94.50Q342 87 386 87Q464 87 501.50 123.50Q539 160 539 272L539 700L651 700L651 271Q651 114 580 51.50Q509-11 378-11Q235-11 168 54Q101 119 101 265M330 765L418 915L560 915L422 765L330 765Z"  horiz-adv-x="752" vert-adv-y="1000"  />

      
      <glyph glyph-name="unidb" unicode="&#xdb;" d="M101 265L101 700L213 700L213 281Q213 221 224.50 182Q236 143 260 122.50Q284 102 313 94.50Q342 87 386 87Q464 87 501.50 123.50Q539 160 539 272L539 700L651 700L651 271Q651 114 580 51.50Q509-11 378-11Q235-11 168 54Q101 119 101 265M206 765L319 915L433 915L546 765L448 765L376 857L304 765L206 765Z"  horiz-adv-x="752" vert-adv-y="1000"  />

      
      <glyph glyph-name="unidc" unicode="&#xdc;" d="M101 265L101 700L213 700L213 281Q213 221 224.50 182Q236 143 260 122.50Q284 102 313 94.50Q342 87 386 87Q464 87 501.50 123.50Q539 160 539 272L539 700L651 700L651 271Q651 114 580 51.50Q509-11 378-11Q235-11 168 54Q101 119 101 265M275 778Q275 778 243 778Q211 778 211 840Q211 902 275 902Q339 902 339 840Q339 778 275 778M477 778Q477 778 445 778Q413 778 413 840Q413 902 477 902Q541 902 541 840Q541 778 477 778Z"  horiz-adv-x="752" vert-adv-y="1000"  />

      
      <glyph glyph-name="unidd" unicode="&#xdd;" d="M263 0L263 263L17 700L142 700L322 376L496 700L618 700L374 264L374 0L263 0M272 765L360 915L502 915L364 765L272 765Z"  horiz-adv-x="636" vert-adv-y="1000"  />

      
      <glyph glyph-name="unide" unicode="&#xde;" d="M100-2L100 702L212 702L212 602L315 602Q435 602 494 549.50Q553 497 553 386Q553 277 491 219Q429 161 305 161L212 161L212-2L100-2M211 263L305 263Q374 263 404.50 292.50Q435 322 435 383Q435 445 404.50 473Q374 501 304 501L211 501L211 263Z"  horiz-adv-x="616" vert-adv-y="1000"  />

      
      <glyph glyph-name="unidf" unicode="&#xdf;" d="M86 0L86 493Q86 632 142 701Q198 770 328 770Q421 770 478 722.50Q535 675 535 580Q535 454 430 415L430 412Q497 403 533.50 352.50Q570 302 570 220Q570 119 515.50 54.50Q461-10 358-10Q304-10 269 2L269 93Q303 81 344 81Q459 81 459 221Q459 301 426 330.50Q393 360 331 360L285 360L285 449L323 449Q424 449 424 572Q424 624 396.50 651.50Q369 679 320 679Q250 679 223 632.50Q196 586 196 504L196 0L86 0Z"  horiz-adv-x="636" vert-adv-y="1000"  />

      
      <glyph glyph-name="unie0" unicode="&#xe0;" d="M400 0L395 77Q374 39 330.50 14Q287-11 228-11Q145-11 99.50 31.50Q54 74 54 150Q54 237 105 274.50Q156 312 274 312L390 312L390 356Q390 412 362 432.50Q334 453 265 453Q219 453 173 436Q127 419 97 395L97 507Q167 545 280 545Q397 545 446.50 503.50Q496 462 496 358L496 0L400 0M161 164Q161 82 257 82Q323 82 356.50 115Q390 148 390 203L390 244L282 244Q212 244 186.50 226.50Q161 209 161 164M350 624L260 624L130 764L270 764L350 624Z"  horiz-adv-x="580" vert-adv-y="1000"  />

      
      <glyph glyph-name="unie1" unicode="&#xe1;" d="M400 0L395 77Q374 39 330.50 14Q287-11 228-11Q145-11 99.50 31.50Q54 74 54 150Q54 237 105 274.50Q156 312 274 312L390 312L390 356Q390 412 362 432.50Q334 453 265 453Q219 453 173 436Q127 419 97 395L97 507Q167 545 280 545Q397 545 446.50 503.50Q496 462 496 358L496 0L400 0M161 164Q161 82 257 82Q323 82 356.50 115Q390 148 390 203L390 244L282 244Q212 244 186.50 226.50Q161 209 161 164M245 624L325 764L465 764L335 624L245 624Z"  horiz-adv-x="580" vert-adv-y="1000"  />

      
      <glyph glyph-name="unie2" unicode="&#xe2;" d="M400 0L395 77Q374 39 330.50 14Q287-11 228-11Q145-11 99.50 31.50Q54 74 54 150Q54 237 105 274.50Q156 312 274 312L390 312L390 356Q390 412 362 432.50Q334 453 265 453Q219 453 173 436Q127 419 97 395L97 507Q167 545 280 545Q397 545 446.50 503.50Q496 462 496 358L496 0L400 0M161 164Q161 82 257 82Q323 82 356.50 115Q390 148 390 203L390 244L282 244Q212 244 186.50 226.50Q161 209 161 164M129 624L234 764L344 764L449 624L358 624L289 707L221 624L129 624Z"  horiz-adv-x="580" vert-adv-y="1000"  />

      
      <glyph glyph-name="unie3" unicode="&#xe3;" d="M400 0L395 77Q374 39 330.50 14Q287-11 228-11Q145-11 99.50 31.50Q54 74 54 150Q54 237 105 274.50Q156 312 274 312L390 312L390 356Q390 412 362 432.50Q334 453 265 453Q219 453 173 436Q127 419 97 395L97 507Q167 545 280 545Q397 545 446.50 503.50Q496 462 496 358L496 0L400 0M161 164Q161 82 257 82Q323 82 356.50 115Q390 148 390 203L390 244L282 244Q212 244 186.50 226.50Q161 209 161 164M192 633L129 647Q131 697 156 726Q181 755 220 755Q243 755 295 731Q302 728 312 723Q322 718 328 715Q334 712 341 710Q348 708 354 708Q380 708 386 755L449 741Q446 690 420 661.50Q394 633 358 633Q334 633 283 658Q275 661 266 666.50Q257 672 251.50 674.50Q246 677 239.50 679Q233 681 226 681Q199 681 192 633Z"  horiz-adv-x="580" vert-adv-y="1000"  />

      
      <glyph glyph-name="unie4" unicode="&#xe4;" d="M400 0L395 77Q374 39 330.50 14Q287-11 228-11Q145-11 99.50 31.50Q54 74 54 150Q54 237 105 274.50Q156 312 274 312L390 312L390 356Q390 412 362 432.50Q334 453 265 453Q219 453 173 436Q127 419 97 395L97 507Q167 545 280 545Q397 545 446.50 503.50Q496 462 496 358L496 0L400 0M161 164Q161 82 257 82Q323 82 356.50 115Q390 148 390 203L390 244L282 244Q212 244 186.50 226.50Q161 209 161 164M191 634Q191 634 160 634Q129 634 129 694Q129 754 191 754Q253 754 253 694Q253 634 191 634M387 634Q387 634 356 634Q325 634 325 694Q325 754 387 754Q449 754 449 694Q449 634 387 634Z"  horiz-adv-x="580" vert-adv-y="1000"  />

      
      <glyph glyph-name="unie5" unicode="&#xe5;" d="M400 0L395 77Q374 39 330.50 14Q287-11 228-11Q145-11 99.50 31.50Q54 74 54 150Q54 237 105 274.50Q156 312 274 312L390 312L390 356Q390 412 362 432.50Q334 453 265 453Q219 453 173 436Q127 419 97 395L97 507Q167 545 280 545Q397 545 446.50 503.50Q496 462 496 358L496 0L400 0M161 164Q161 82 257 82Q323 82 356.50 115Q390 148 390 203L390 244L282 244Q212 244 186.50 226.50Q161 209 161 164M220 623.50Q220 623.50 206.50 636.25Q193 649 193 694Q193 739 220 764.50Q247 790 289 790Q331 790 358 764.50Q385 739 385 694Q385 649 358 623.50Q331 598 289 598Q247 598 220 623.50M258.50 725Q258.50 725 252.75 719.50Q247 714 247 694Q247 674 258.50 663Q270 652 289 652Q308 652 319.50 663Q331 674 331 694Q331 714 319.50 725Q308 736 289 736Q270 736 258.50 725Z"  horiz-adv-x="580" vert-adv-y="1000"  />

      
      <glyph glyph-name="unie6" unicode="&#xe6;" d="M878 236L504 236Q505 157 544.50 117.50Q584 78 667 78Q766 78 840 137L840 36Q815 18 767 3Q719-12 659-12Q508-12 447 74Q420 35 375 12Q330-11 245-11Q155-11 104.50 31.50Q54 74 54 150Q54 237 108.50 275Q163 313 281 312L397 312L397 356Q397 412 369 432.50Q341 453 272 453Q226 453 176 435.50Q126 418 97 395L97 507Q129 524 183.50 534.50Q238 545 287 545Q423 545 469 484Q530 545 642 545Q878 545 878 292L878 236M741.50 422.50Q741.50 422.50 725.75 439.75Q710 457 641 457Q572 457 538.50 422.50Q505 388 504 313L773 313Q773 388 741.50 422.50M161 164Q161 125 187 103.50Q213 82 264 82Q331 82 364 115Q397 148 397 203L397 236L289 236Q216 236 188.50 221.50Q161 207 161 164Z"  horiz-adv-x="933" vert-adv-y="1000"  />

      
      <glyph glyph-name="unie7" unicode="&#xe7;" d="M256-97L268-9Q162 3 109 71Q56 139 56 276Q56 413 123 479Q190 545 326 545Q414 545 472 517L472 406Q411 450 324 450Q246 450 205.50 409Q165 368 165 271Q165 171 208.50 128Q252 85 342 85Q432 85 487 130L487 25Q435-11 329-12L323-47Q423-49 423-134Q423-177 391-204.50Q359-232 307-232Q260-232 225-217L233-160Q262-173 292-173Q341-173 341-130Q341-95 291-95Q265-95 256-97Z"  horiz-adv-x="541" vert-adv-y="1000"  />

      
      <glyph glyph-name="unie8" unicode="&#xe8;" d="M544 235L163 235Q164 78 333 78Q432 78 506 137L506 36Q481 18 433 3Q385-12 325-12Q186-12 121 56.50Q56 125 56 276Q56 407 121 476Q186 545 308 545Q544 545 544 292L544 235M307 457Q164 457 163 312L439 312Q439 386 407.50 421.50Q376 457 307 457M370 624L280 624L150 764L290 764L370 624Z"  horiz-adv-x="599" vert-adv-y="1000"  />

      
      <glyph glyph-name="unie9" unicode="&#xe9;" d="M544 235L163 235Q164 78 333 78Q432 78 506 137L506 36Q481 18 433 3Q385-12 325-12Q186-12 121 56.50Q56 125 56 276Q56 407 121 476Q186 545 308 545Q544 545 544 292L544 235M307 457Q164 457 163 312L439 312Q439 386 407.50 421.50Q376 457 307 457M265 624L345 764L485 764L355 624L265 624Z"  horiz-adv-x="599" vert-adv-y="1000"  />

      
      <glyph glyph-name="uniea" unicode="&#xea;" d="M544 235L163 235Q164 78 333 78Q432 78 506 137L506 36Q481 18 433 3Q385-12 325-12Q186-12 121 56.50Q56 125 56 276Q56 407 121 476Q186 545 308 545Q544 545 544 292L544 235M307 457Q164 457 163 312L439 312Q439 386 407.50 421.50Q376 457 307 457M150 624L255 764L365 764L470 624L379 624L310 707L242 624L150 624Z"  horiz-adv-x="599" vert-adv-y="1000"  />

      
      <glyph glyph-name="unieb" unicode="&#xeb;" d="M544 235L163 235Q164 78 333 78Q432 78 506 137L506 36Q481 18 433 3Q385-12 325-12Q186-12 121 56.50Q56 125 56 276Q56 407 121 476Q186 545 308 545Q544 545 544 292L544 235M307 457Q164 457 163 312L439 312Q439 386 407.50 421.50Q376 457 307 457M212 634Q212 634 181 634Q150 634 150 694Q150 754 212 754Q274 754 274 694Q274 634 212 634M408 634Q408 634 377 634Q346 634 346 694Q346 754 408 754Q470 754 470 694Q470 634 408 634Z"  horiz-adv-x="599" vert-adv-y="1000"  />

      
      <glyph glyph-name="uniec" unicode="&#xec;" d="M100 0L100 534L206 534L206 0L100 0M198 624L108 624L-22 764L118 764L198 624Z"  horiz-adv-x="306" vert-adv-y="1000"  />

      
      <glyph glyph-name="unied" unicode="&#xed;" d="M100 0L100 534L206 534L206 0L100 0M108 624L188 764L328 764L198 624L108 624Z"  horiz-adv-x="306" vert-adv-y="1000"  />

      
      <glyph glyph-name="uniee" unicode="&#xee;" d="M100 0L100 534L206 534L206 0L100 0M-7 624L98 764L208 764L313 624L222 624L153 707L85 624L-7 624Z"  horiz-adv-x="306" vert-adv-y="1000"  />

      
      <glyph glyph-name="unief" unicode="&#xef;" d="M100 0L100 534L206 534L206 0L100 0M55 634Q55 634 24 634Q-7 634-7 694Q-7 754 55 754Q117 754 117 694Q117 634 55 634M251 634Q251 634 220 634Q189 634 189 694Q189 754 251 754Q313 754 313 694Q313 634 251 634Z"  horiz-adv-x="306" vert-adv-y="1000"  />

      
      <glyph glyph-name="unif0" unicode="&#xf0;" d="M198 553L168 605L252 648Q193 679 130 691L173 770Q262 753 350 700L474 762L504 710L405 659Q557 510 557 260Q557 124 490 57.50Q423-9 310-9Q68-9 68 255Q68 380 127 447Q186 514 291 514Q369 514 415 466L418 468Q389 551 312 611L198 553M176 255Q176 82 313 82Q383 82 416.50 122Q450 162 450 255Q450 347 418 386.50Q386 426 313 426Q244 426 210 387Q176 348 176 255Z"  horiz-adv-x="634" vert-adv-y="1000"  />

      
      <glyph glyph-name="unif1" unicode="&#xf1;" d="M90 0L90 534L190 534L195 452Q245 544 369 544Q467 544 511 499Q555 454 555 344L555 0L450 0L450 317Q450 395 424.50 424Q399 453 329 453Q263 453 229.50 417Q196 381 196 315L196 0L90 0M238 633L175 647Q177 697 202 726Q227 755 266 755Q289 755 341 731Q348 728 358 723Q368 718 374 715Q380 712 387 710Q394 708 400 708Q426 708 432 755L495 741Q492 690 466 661.50Q440 633 404 633Q380 633 329 658Q321 661 312 666.50Q303 672 297.50 674.50Q292 677 285.50 679Q279 681 272 681Q245 681 238 633Z"  horiz-adv-x="638" vert-adv-y="1000"  />

      
      <glyph glyph-name="unif2" unicode="&#xf2;" d="M122 60.50Q122 60.50 89 96.75Q56 133 56 269Q56 405 127.50 475Q199 545 325 545Q577 545 577 266Q577 124 507.50 56Q438-12 316-12Q188-12 122 60.50M163 269L163 265Q163 175 203 127Q243 79 322 79Q470 79 470 265L470 269Q470 456 316 456Q163 456 163 269M376 624L286 624L156 764L296 764L376 624Z"  horiz-adv-x="633" vert-adv-y="1000"  />

      
      <glyph glyph-name="unif3" unicode="&#xf3;" d="M122 60.50Q122 60.50 89 96.75Q56 133 56 269Q56 405 127.50 475Q199 545 325 545Q577 545 577 266Q577 124 507.50 56Q438-12 316-12Q188-12 122 60.50M163 269L163 265Q163 175 203 127Q243 79 322 79Q470 79 470 265L470 269Q470 456 316 456Q163 456 163 269M271 624L351 764L491 764L361 624L271 624Z"  horiz-adv-x="633" vert-adv-y="1000"  />

      
      <glyph glyph-name="unif4" unicode="&#xf4;" d="M122 60.50Q122 60.50 89 96.75Q56 133 56 269Q56 405 127.50 475Q199 545 325 545Q577 545 577 266Q577 124 507.50 56Q438-12 316-12Q188-12 122 60.50M163 269L163 265Q163 175 203 127Q243 79 322 79Q470 79 470 265L470 269Q470 456 316 456Q163 456 163 269M156 624L261 764L371 764L476 624L385 624L316 707L248 624L156 624Z"  horiz-adv-x="633" vert-adv-y="1000"  />

      
      <glyph glyph-name="unif5" unicode="&#xf5;" d="M122 60.50Q122 60.50 89 96.75Q56 133 56 269Q56 405 127.50 475Q199 545 325 545Q577 545 577 266Q577 124 507.50 56Q438-12 316-12Q188-12 122 60.50M163 269L163 265Q163 175 203 127Q243 79 322 79Q470 79 470 265L470 269Q470 456 316 456Q163 456 163 269M219 633L156 647Q158 697 183 726Q208 755 247 755Q270 755 322 731Q329 728 339 723Q349 718 355 715Q361 712 368 710Q375 708 381 708Q407 708 413 755L476 741Q473 690 447 661.50Q421 633 385 633Q361 633 310 658Q302 661 293 666.50Q284 672 278.50 674.50Q273 677 266.50 679Q260 681 253 681Q226 681 219 633Z"  horiz-adv-x="633" vert-adv-y="1000"  />

      
      <glyph glyph-name="unif6" unicode="&#xf6;" d="M122 60.50Q122 60.50 89 96.75Q56 133 56 269Q56 405 127.50 475Q199 545 325 545Q577 545 577 266Q577 124 507.50 56Q438-12 316-12Q188-12 122 60.50M163 269L163 265Q163 175 203 127Q243 79 322 79Q470 79 470 265L470 269Q470 456 316 456Q163 456 163 269M218 634Q218 634 187 634Q156 634 156 694Q156 754 218 754Q280 754 280 694Q280 634 218 634M414 634Q414 634 383 634Q352 634 352 694Q352 754 414 754Q476 754 476 694Q476 634 414 634Z"  horiz-adv-x="633" vert-adv-y="1000"  />

      
      <glyph glyph-name="unif7" unicode="&#xf7;" d="M238.50 93.50Q238.50 93.50 229.25 102.75Q220 112 220 145Q220 178 238.50 196Q257 214 289 214Q319 214 338 195.50Q357 177 357 145Q357 111 339 93Q321 75 289 75Q257 75 238.50 93.50M238.50 452Q238.50 452 229.25 461Q220 470 220 503Q220 536 238 554.50Q256 573 289 573Q320 573 338.50 554.50Q357 536 357 503Q357 470 339 452Q321 434 289 434Q257 434 238.50 452M69 279L69 369L507 369L507 279L69 279Z"  horiz-adv-x="575" vert-adv-y="1000"  />

      
      <glyph glyph-name="unif8" unicode="&#xf8;" d="M56 269Q56 405 127.50 475Q199 545 325 545Q402 545 457 518L494 569L550 530L511 477Q577 408 577 266Q577 124 507.50 56Q438-12 316-12Q236-12 178 17L139-37L83 2L124 58Q56 131 56 269M163 269L163 265Q163 191 188 147L398 437Q366 456 316 456Q163 456 163 269M470 269Q470 344 446 387L237 98Q271 79 322 79Q470 79 470 265L470 269Z"  horiz-adv-x="633" vert-adv-y="1000"  />

      
      <glyph glyph-name="unif9" unicode="&#xf9;" d="M445 0L440 83Q389-11 264-11Q174-11 129.50 34.50Q85 80 85 179L85 534L191 534L191 208Q191 138 216.50 109.50Q242 81 306 81Q377 81 408 114.50Q439 148 439 222L439 534L544 534L544 0L445 0M378 624L288 624L158 764L298 764L378 624Z"  horiz-adv-x="634" vert-adv-y="1000"  />

      
      <glyph glyph-name="unifa" unicode="&#xfa;" d="M445 0L440 83Q389-11 264-11Q174-11 129.50 34.50Q85 80 85 179L85 534L191 534L191 208Q191 138 216.50 109.50Q242 81 306 81Q377 81 408 114.50Q439 148 439 222L439 534L544 534L544 0L445 0M272 624L352 764L492 764L362 624L272 624Z"  horiz-adv-x="634" vert-adv-y="1000"  />

      
      <glyph glyph-name="unifb" unicode="&#xfb;" d="M445 0L440 83Q389-11 264-11Q174-11 129.50 34.50Q85 80 85 179L85 534L191 534L191 208Q191 138 216.50 109.50Q242 81 306 81Q377 81 408 114.50Q439 148 439 222L439 534L544 534L544 0L445 0M157 624L262 764L372 764L477 624L386 624L317 707L249 624L157 624Z"  horiz-adv-x="634" vert-adv-y="1000"  />

      
      <glyph glyph-name="unifc" unicode="&#xfc;" d="M445 0L440 83Q389-11 264-11Q174-11 129.50 34.50Q85 80 85 179L85 534L191 534L191 208Q191 138 216.50 109.50Q242 81 306 81Q377 81 408 114.50Q439 148 439 222L439 534L544 534L544 0L445 0M216 634Q216 634 185 634Q154 634 154 694Q154 754 216 754Q278 754 278 694Q278 634 216 634M412 634Q412 634 381 634Q350 634 350 694Q350 754 412 754Q474 754 474 694Q474 634 412 634Z"  horiz-adv-x="634" vert-adv-y="1000"  />

      
      <glyph glyph-name="unifd" unicode="&#xfd;" d="M165-93Q194-93 211-76Q228-59 247-2L26 534L147 534L299 132L424 534L534 534L351 17Q327-51 304.50-94Q282-137 258.50-156.50Q235-176 216.50-182Q198-188 171-188Q132-188 112-178L113-79Q139-93 165-93M231 624L311 764L451 764L321 624L231 624Z"  horiz-adv-x="553" vert-adv-y="1000"  />

      
      <glyph glyph-name="unife" unicode="&#xfe;" d="M89-180L89 754L195 754L195 444Q239 544 379 544Q488 544 539 481.50Q590 419 590 277Q590 126 535 57.50Q480-11 365-11Q245-11 195 70L195-180L89-180M195 224Q195 156 232 118Q269 80 339 80Q418 80 450.50 124Q483 168 483 273Q483 371 448 412.50Q413 454 339 454Q267 454 231 415.50Q195 377 195 312L195 224Z"  horiz-adv-x="647" vert-adv-y="1000"  />

      
      <glyph glyph-name="uniff" unicode="&#xff;" d="M165-93Q194-93 211-76Q228-59 247-2L26 534L147 534L299 132L424 534L534 534L351 17Q327-51 304.50-94Q282-137 258.50-156.50Q235-176 216.50-182Q198-188 171-188Q132-188 112-178L113-79Q139-93 165-93M182 634Q182 634 151 634Q120 634 120 694Q120 754 182 754Q244 754 244 694Q244 634 182 634M378 634Q378 634 347 634Q316 634 316 694Q316 754 378 754Q440 754 440 694Q440 634 378 634Z"  horiz-adv-x="553" vert-adv-y="1000"  />

      
      <glyph glyph-name="uni0100" unicode="&#x0100;" d="M547 0L483 176L197 176L134 0L21 0L282 700L403 700L667 0L547 0M340 572L232 272L448 272L340 572M194 800L194 880L494 880L494 800L194 800Z"  horiz-adv-x="687" vert-adv-y="1000"  />

      
      <glyph glyph-name="uni0101" unicode="&#x0101;" d="M400 0L395 77Q374 39 330.50 14Q287-11 228-11Q145-11 99.50 31.50Q54 74 54 150Q54 237 105 274.50Q156 312 274 312L390 312L390 356Q390 412 362 432.50Q334 453 265 453Q219 453 173 436Q127 419 97 395L97 507Q167 545 280 545Q397 545 446.50 503.50Q496 462 496 358L496 0L400 0M161 164Q161 82 257 82Q323 82 356.50 115Q390 148 390 203L390 244L282 244Q212 244 186.50 226.50Q161 209 161 164M144 656L144 732L434 732L434 656L144 656Z"  horiz-adv-x="580" vert-adv-y="1000"  />

      
      <glyph glyph-name="uni0102" unicode="&#x0102;" d="M547 0L483 176L197 176L134 0L21 0L282 700L403 700L667 0L547 0M340 572L232 272L448 272L340 572M184 896L250 915Q273 839 344 839Q415 839 438 915L504 896Q473 765 344 765Q215 765 184 896Z"  horiz-adv-x="687" vert-adv-y="1000"  />

      
      <glyph glyph-name="uni0103" unicode="&#x0103;" d="M400 0L395 77Q374 39 330.50 14Q287-11 228-11Q145-11 99.50 31.50Q54 74 54 150Q54 237 105 274.50Q156 312 274 312L390 312L390 356Q390 412 362 432.50Q334 453 265 453Q219 453 173 436Q127 419 97 395L97 507Q167 545 280 545Q397 545 446.50 503.50Q496 462 496 358L496 0L400 0M161 164Q161 82 257 82Q323 82 356.50 115Q390 148 390 203L390 244L282 244Q212 244 186.50 226.50Q161 209 161 164M129 750L193 769Q216 691 289 691Q362 691 385 769L449 750Q418 619 289 619Q160 619 129 750Z"  horiz-adv-x="580" vert-adv-y="1000"  />

      
      <glyph glyph-name="uni0104" unicode="&#x0104;" d="M547 0L483 176L197 176L134 0L21 0L282 700L403 700L667 0L632 0Q552-59 552-130Q552-173 608-173Q640-173 666-158L666-223Q626-242 579-242Q521-242 493-216.50Q465-191 465-147Q465-70 564 0L547 0M340 572L232 272L448 272L340 572Z"  horiz-adv-x="687" vert-adv-y="1000"  />

      
      <glyph glyph-name="uni0105" unicode="&#x0105;" d="M400 0L395 77Q374 39 330.50 14Q287-11 228-11Q145-11 99.50 31.50Q54 74 54 150Q54 237 105 274.50Q156 312 274 312L390 312L390 356Q390 412 362 432.50Q334 453 265 453Q219 453 173 436Q127 419 97 395L97 507Q167 545 280 545Q397 545 446.50 503.50Q496 462 496 358L496 0L478 0Q405-54 405-123Q405-144 418.50-156.50Q432-169 455-169Q484-169 512-153L512-213Q470-232 430-232Q375-232 347-206Q319-180 319-139Q319-61 412 0L400 0M161 164Q161 82 257 82Q323 82 356.50 115Q390 148 390 203L390 244L282 244Q212 244 186.50 226.50Q161 209 161 164Z"  horiz-adv-x="580" vert-adv-y="1000"  />

      
      <glyph glyph-name="uni0106" unicode="&#x0106;" d="M584 679L584 559Q509 610 395 610Q286 610 234 552Q182 494 182 358Q182 211 237 151Q292 91 403 91Q509 91 600 145L600 33Q521-10 399-10Q226-10 145 75.50Q64 161 64 349Q64 536 145.50 623Q227 710 396 710Q488 710 584 679M333 765L421 915L563 915L425 765L333 765Z"  horiz-adv-x="658" vert-adv-y="1000"  />

      
      <glyph glyph-name="uni0107" unicode="&#x0107;" d="M472 517L472 406Q411 450 324 450Q246 450 205.50 409Q165 368 165 271Q165 171 208.50 128Q252 85 342 85Q432 85 487 130L487 25Q433-12 325-12Q189-12 122.50 55Q56 122 56 276Q56 413 123 479Q190 545 326 545Q414 545 472 517M270 624L350 764L490 764L360 624L270 624Z"  horiz-adv-x="541" vert-adv-y="1000"  />

      
      <glyph glyph-name="uni0108" unicode="&#x0108;" d="M584 679L584 559Q509 610 395 610Q286 610 234 552Q182 494 182 358Q182 211 237 151Q292 91 403 91Q509 91 600 145L600 33Q521-10 399-10Q226-10 145 75.50Q64 161 64 349Q64 536 145.50 623Q227 710 396 710Q488 710 584 679M209 765L322 915L436 915L549 765L451 765L379 857L307 765L209 765Z"  horiz-adv-x="658" vert-adv-y="1000"  />

      
      <glyph glyph-name="uni0109" unicode="&#x0109;" d="M472 517L472 406Q411 450 324 450Q246 450 205.50 409Q165 368 165 271Q165 171 208.50 128Q252 85 342 85Q432 85 487 130L487 25Q433-12 325-12Q189-12 122.50 55Q56 122 56 276Q56 413 123 479Q190 545 326 545Q414 545 472 517M155 624L260 764L370 764L475 624L384 624L315 707L247 624L155 624Z"  horiz-adv-x="541" vert-adv-y="1000"  />

      
      <glyph glyph-name="uni010A" unicode="&#x010A;" d="M584 679L584 559Q509 610 395 610Q286 610 234 552Q182 494 182 358Q182 211 237 151Q292 91 403 91Q509 91 600 145L600 33Q521-10 399-10Q226-10 145 75.50Q64 161 64 349Q64 536 145.50 623Q227 710 396 710Q488 710 584 679M379 776Q379 776 346 776Q313 776 313 840Q313 904 379 904Q445 904 445 840Q445 776 379 776Z"  horiz-adv-x="658" vert-adv-y="1000"  />

      
      <glyph glyph-name="uni010B" unicode="&#x010B;" d="M472 517L472 406Q411 450 324 450Q246 450 205.50 409Q165 368 165 271Q165 171 208.50 128Q252 85 342 85Q432 85 487 130L487 25Q433-12 325-12Q189-12 122.50 55Q56 122 56 276Q56 413 123 479Q190 545 326 545Q414 545 472 517M315 632Q315 632 283 632Q251 632 251 694Q251 756 315 756Q379 756 379 694Q379 632 315 632Z"  horiz-adv-x="541" vert-adv-y="1000"  />

      
      <glyph glyph-name="uni010C" unicode="&#x010C;" d="M584 679L584 559Q509 610 395 610Q286 610 234 552Q182 494 182 358Q182 211 237 151Q292 91 403 91Q509 91 600 145L600 33Q521-10 399-10Q226-10 145 75.50Q64 161 64 349Q64 536 145.50 623Q227 710 396 710Q488 710 584 679M322 765L209 915L307 915L379 823L451 915L549 915L436 765L322 765Z"  horiz-adv-x="658" vert-adv-y="1000"  />

      
      <glyph glyph-name="uni010D" unicode="&#x010D;" d="M472 517L472 406Q411 450 324 450Q246 450 205.50 409Q165 368 165 271Q165 171 208.50 128Q252 85 342 85Q432 85 487 130L487 25Q433-12 325-12Q189-12 122.50 55Q56 122 56 276Q56 413 123 479Q190 545 326 545Q414 545 472 517M260 624L155 764L247 764L315 682L384 764L475 764L370 624L260 624Z"  horiz-adv-x="541" vert-adv-y="1000"  />

      
      <glyph glyph-name="uni010E" unicode="&#x010E;" d="M106 4L106 699Q203 708 321 708Q520 708 601 627Q682 546 682 372Q682 172 589.50 82Q497-8 303-8Q219-8 106 4M218 97Q257 91 301 91Q443 91 504.50 152Q566 213 566 361Q566 499 512 554.50Q458 610 318 610Q278 610 218 604L218 97M316 765L203 915L301 915L373 823L445 915L543 915L430 765L316 765Z"  horiz-adv-x="746" vert-adv-y="1000"  />

      
      <glyph glyph-name="uni010F" unicode="&#x010F;" d="M459 0L454 92Q428 43 389 16Q350-11 279-11Q166-11 111 53Q56 117 56 261Q56 408 112.50 476Q169 544 285 544Q407 544 451 475L451 754L557 754L557 0L459 0M310 80Q454 80 452 239L452 314Q452 455 306 455Q230 455 197 413Q164 371 164 266Q164 165 198.50 122.50Q233 80 310 80M617 554L663 754L767 754L691 554L617 554Z"  horiz-adv-x="679" vert-adv-y="1000"  />

      
      <glyph glyph-name="uni0110" unicode="&#x0110;" d="M30 313L30 394L106 394L106 699Q203 708 321 708Q520 708 601 627Q682 546 682 372Q682 172 589.50 82Q497-8 303-8Q219-8 106 4L106 313L30 313M218 97Q257 91 301 91Q443 91 504.50 152Q566 213 566 361Q566 499 512 554.50Q458 610 318 610Q278 610 218 604L218 394L406 394L406 313L218 313L218 97Z"  horiz-adv-x="749" vert-adv-y="1000"  />

      
      <glyph glyph-name="uni0111" unicode="&#x0111;" d="M459 0L454 92Q428 43 389 16Q350-11 279-11Q166-11 111 53Q56 117 56 261Q56 408 112.50 476Q169 544 285 544Q407 544 451 475L451 596L225 596L225 668L451 668L451 754L557 754L557 668L622 668L622 596L557 596L557 0L459 0M310 80Q454 80 452 239L452 314Q452 455 306 455Q230 455 197 413Q164 371 164 266Q164 165 198.50 122.50Q233 80 310 80Z"  horiz-adv-x="649" vert-adv-y="1000"  />

      
      <glyph glyph-name="uni0112" unicode="&#x0112;" d="M106 0L106 700L550 700L550 602L218 602L218 403L519 403L519 307L218 307L218 98L550 98L550 0L106 0M178 800L178 880L478 880L478 800L178 800Z"  horiz-adv-x="616" vert-adv-y="1000"  />

      
      <glyph glyph-name="uni0113" unicode="&#x0113;" d="M544 235L163 235Q164 78 333 78Q432 78 506 137L506 36Q481 18 433 3Q385-12 325-12Q186-12 121 56.50Q56 125 56 276Q56 407 121 476Q186 545 308 545Q544 545 544 292L544 235M307 457Q164 457 163 312L439 312Q439 386 407.50 421.50Q376 457 307 457M165 656L165 732L455 732L455 656L165 656Z"  horiz-adv-x="599" vert-adv-y="1000"  />

      
      <glyph glyph-name="uni0116" unicode="&#x0116;" d="M106 0L106 700L550 700L550 602L218 602L218 403L519 403L519 307L218 307L218 98L550 98L550 0L106 0M328 776Q328 776 295 776Q262 776 262 840Q262 904 328 904Q394 904 394 840Q394 776 328 776Z"  horiz-adv-x="616" vert-adv-y="1000"  />

      
      <glyph glyph-name="uni0117" unicode="&#x0117;" d="M544 235L163 235Q164 78 333 78Q432 78 506 137L506 36Q481 18 433 3Q385-12 325-12Q186-12 121 56.50Q56 125 56 276Q56 407 121 476Q186 545 308 545Q544 545 544 292L544 235M307 457Q164 457 163 312L439 312Q439 386 407.50 421.50Q376 457 307 457M310 632Q310 632 278 632Q246 632 246 694Q246 756 310 756Q374 756 374 694Q374 632 310 632Z"  horiz-adv-x="599" vert-adv-y="1000"  />

      
      <glyph glyph-name="uni0118" unicode="&#x0118;" d="M106 0L106 700L550 700L550 602L218 602L218 403L519 403L519 307L218 307L218 98L550 98L550 0L535 0Q455-59 455-130Q455-173 511-173Q543-173 569-158L569-223Q529-242 482-242Q424-242 396-216.50Q368-191 368-147Q368-70 467 0L106 0Z"  horiz-adv-x="616" vert-adv-y="1000"  />

      
      <glyph glyph-name="uni0119" unicode="&#x0119;" d="M447-153L447-213Q405-232 365-232Q310-232 282-206Q254-180 254-139Q254-68 329-12L325-12Q186-12 121 56.50Q56 125 56 276Q56 407 121 476Q186 545 308 545Q544 545 544 292L544 235L163 235Q164 78 333 78Q432 78 506 137L506 36Q468 9 409-3Q340-57 340-123Q340-144 353.50-156.50Q367-169 390-169Q419-169 447-153M307 457Q164 457 163 312L439 312Q439 386 407.50 421.50Q376 457 307 457Z"  horiz-adv-x="599" vert-adv-y="1000"  />

      
      <glyph glyph-name="uni011A" unicode="&#x011A;" d="M106 0L106 700L550 700L550 602L218 602L218 403L519 403L519 307L218 307L218 98L550 98L550 0L106 0M271 765L158 915L256 915L328 823L400 915L498 915L385 765L271 765Z"  horiz-adv-x="616" vert-adv-y="1000"  />

      
      <glyph glyph-name="uni011B" unicode="&#x011B;" d="M544 235L163 235Q164 78 333 78Q432 78 506 137L506 36Q481 18 433 3Q385-12 325-12Q186-12 121 56.50Q56 125 56 276Q56 407 121 476Q186 545 308 545Q544 545 544 292L544 235M307 457Q164 457 163 312L439 312Q439 386 407.50 421.50Q376 457 307 457M255 624L150 764L242 764L310 682L379 764L470 764L365 624L255 624Z"  horiz-adv-x="599" vert-adv-y="1000"  />

      
      <glyph glyph-name="uni011C" unicode="&#x011C;" d="M398 269L398 363L645 363L645 33Q551-10 424-10Q239-10 151.50 75Q64 160 64 349Q64 534 153.50 622Q243 710 425 710Q534 710 596 679L596 566Q517 612 424 612Q297 612 238.50 552.50Q180 493 180 358Q180 210 240 149.50Q300 89 428 89Q492 89 544 103L544 269L398 269M227 765L340 915L454 915L567 765L469 765L397 857L325 765L227 765Z"  horiz-adv-x="712" vert-adv-y="1000"  />

      
      <glyph glyph-name="uni011D" unicode="&#x011D;" d="M98-151L98-39Q126-60 177-78Q228-96 287-96Q373-96 412-65Q451-34 452 35L452 107Q404 16 279 16Q166 16 111 75.50Q56 135 56 268Q56 416 112.50 480Q169 544 292 544Q414 544 455 463L460 534L557 534L557 42Q557-79 490-133Q423-187 293-187Q176-187 98-151M307 106Q453 106 453 257L453 305Q453 387 416.50 420.50Q380 454 308 454Q236 454 200 413Q164 372 164 275Q164 106 307 106M164 624L269 764L379 764L484 624L393 624L324 707L256 624L164 624Z"  horiz-adv-x="648" vert-adv-y="1000"  />

      
      <glyph glyph-name="uni011E" unicode="&#x011E;" d="M398 269L398 363L645 363L645 33Q551-10 424-10Q239-10 151.50 75Q64 160 64 349Q64 534 153.50 622Q243 710 425 710Q534 710 596 679L596 566Q517 612 424 612Q297 612 238.50 552.50Q180 493 180 358Q180 210 240 149.50Q300 89 428 89Q492 89 544 103L544 269L398 269M240 896L306 915Q329 839 400 839Q471 839 494 915L560 896Q529 765 400 765Q271 765 240 896Z"  horiz-adv-x="712" vert-adv-y="1000"  />

      
      <glyph glyph-name="uni011F" unicode="&#x011F;" d="M98-151L98-39Q126-60 177-78Q228-96 287-96Q373-96 412-65Q451-34 452 35L452 107Q404 16 279 16Q166 16 111 75.50Q56 135 56 268Q56 416 112.50 480Q169 544 292 544Q414 544 455 463L460 534L557 534L557 42Q557-79 490-133Q423-187 293-187Q176-187 98-151M307 106Q453 106 453 257L453 305Q453 387 416.50 420.50Q380 454 308 454Q236 454 200 413Q164 372 164 275Q164 106 307 106M146 750L210 769Q233 691 306 691Q379 691 402 769L466 750Q435 619 306 619Q177 619 146 750Z"  horiz-adv-x="648" vert-adv-y="1000"  />

      
      <glyph glyph-name="uni0120" unicode="&#x0120;" d="M398 269L398 363L645 363L645 33Q551-10 424-10Q239-10 151.50 75Q64 160 64 349Q64 534 153.50 622Q243 710 425 710Q534 710 596 679L596 566Q517 612 424 612Q297 612 238.50 552.50Q180 493 180 358Q180 210 240 149.50Q300 89 428 89Q492 89 544 103L544 269L398 269M397 776Q397 776 364 776Q331 776 331 840Q331 904 397 904Q463 904 463 840Q463 776 397 776Z"  horiz-adv-x="712" vert-adv-y="1000"  />

      
      <glyph glyph-name="uni0121" unicode="&#x0121;" d="M98-151L98-39Q126-60 177-78Q228-96 287-96Q373-96 412-65Q451-34 452 35L452 107Q404 16 279 16Q166 16 111 75.50Q56 135 56 268Q56 416 112.50 480Q169 544 292 544Q414 544 455 463L460 534L557 534L557 42Q557-79 490-133Q423-187 293-187Q176-187 98-151M307 106Q453 106 453 257L453 305Q453 387 416.50 420.50Q380 454 308 454Q236 454 200 413Q164 372 164 275Q164 106 307 106M324 632Q324 632 292 632Q260 632 260 694Q260 756 324 756Q388 756 388 694Q388 632 324 632Z"  horiz-adv-x="648" vert-adv-y="1000"  />

      
      <glyph glyph-name="uni0122" unicode="&#x0122;" d="M398 269L398 363L645 363L645 33Q551-10 424-10Q239-10 151.50 75Q64 160 64 349Q64 534 153.50 622Q243 710 425 710Q534 710 596 679L596 566Q517 612 424 612Q297 612 238.50 552.50Q180 493 180 358Q180 210 240 149.50Q300 89 428 89Q492 89 544 103L544 269L398 269M346-202Q413-198 413-157Q407-158 395-158Q368-158 350.50-146.50Q333-135 333-113Q333-92 352.50-78Q372-64 405-64Q438-64 458.50-82.50Q479-101 479-138Q479-182 446-214.50Q413-247 350-248L346-202Z"  horiz-adv-x="712" vert-adv-y="1000"  />

      
      <glyph glyph-name="uni0123" unicode="&#x0123;" d="M98-151L98-39Q126-60 177-78Q228-96 287-96Q373-96 412-65Q451-34 452 35L452 107Q404 16 279 16Q166 16 111 75.50Q56 135 56 268Q56 416 112.50 480Q169 544 292 544Q414 544 455 463L460 534L557 534L557 42Q557-79 490-133Q423-187 293-187Q176-187 98-151M307 106Q453 106 453 257L453 305Q453 387 416.50 420.50Q380 454 308 454Q236 454 200 413Q164 372 164 275Q164 106 307 106M380 778Q311 774 311 735Q318 736 330 736Q359 736 376.50 724.50Q394 713 394 691Q394 669 374 654.50Q354 640 320 640Q286 640 264.50 659.50Q243 679 243 716Q243 761 277 792.50Q311 824 376 825L380 778Z"  horiz-adv-x="648" vert-adv-y="1000"  />

      
      <glyph glyph-name="uni0124" unicode="&#x0124;" d="M106 0L106 700L218 700L218 408L577 408L577 700L688 700L688 0L577 0L577 310L218 310L218 0L106 0M227 765L340 915L454 915L567 765L469 765L397 857L325 765L227 765Z"  horiz-adv-x="794" vert-adv-y="1000"  />

      
      <glyph glyph-name="uni0125" unicode="&#x0125;" d="M90 0L90 754L196 754L196 453Q235 544 371 544Q468 544 511.50 500Q555 456 555 357L555 0L450 0L450 339Q450 401 422 427Q394 453 328 453Q260 453 228 420.50Q196 388 196 315L196 0L90 0M-18 804L87 944L197 944L302 804L211 804L142 887L74 804L-18 804Z"  horiz-adv-x="638" vert-adv-y="1000"  />

      
      <glyph glyph-name="uni0126" unicode="&#x0126;" d="M106 0L106 510L35 510L35 588L106 588L106 700L218 700L218 588L577 588L577 700L688 700L688 588L759 588L759 510L688 510L688 0L577 0L577 310L218 310L218 0L106 0M218 408L577 408L577 510L218 510L218 408Z"  horiz-adv-x="794" vert-adv-y="1000"  />

      
      <glyph glyph-name="uni0127" unicode="&#x0127;" d="M90 0L90 596L24 596L24 668L90 668L90 754L196 754L196 668L422 668L422 596L196 596L196 417Q235 508 371 508Q468 508 511.50 464Q555 420 555 321L555 0L450 0L450 303Q450 365 422 391Q394 417 328 417Q260 417 228 384.50Q196 352 196 279L196 0L90 0Z"  horiz-adv-x="638" vert-adv-y="1000"  />

      
      <glyph glyph-name="uni012A" unicode="&#x012A;" d="M110 0L110 700L222 700L222 0L110 0M16 800L16 880L316 880L316 800L16 800Z"  horiz-adv-x="332" vert-adv-y="1000"  />

      
      <glyph glyph-name="uni012B" unicode="&#x012B;" d="M100 0L100 534L206 534L206 0L100 0M8 656L8 732L298 732L298 656L8 656Z"  horiz-adv-x="306" vert-adv-y="1000"  />

      
      <glyph glyph-name="uni012E" unicode="&#x012E;" d="M110 0L110 700L222 700L222 0L203 0Q123-59 123-130Q123-173 179-173Q211-173 237-158L237-223Q197-242 150-242Q92-242 64-216.50Q36-191 36-147Q36-70 135 0L110 0Z"  horiz-adv-x="332" vert-adv-y="1000"  />

      
      <glyph glyph-name="uni012F" unicode="&#x012F;" d="M100 0L100 534L206 534L206 0L183 0Q110-54 110-123Q110-144 123.50-156.50Q137-169 160-169Q189-169 217-153L217-213Q175-232 135-232Q80-232 52-206Q24-180 24-139Q24-61 117 0L100 0M153 632Q153 632 121 632Q89 632 89 694Q89 756 153 756Q217 756 217 694Q217 632 153 632Z"  horiz-adv-x="306" vert-adv-y="1000"  />

      
      <glyph glyph-name="uni0130" unicode="&#x0130;" d="M110 0L110 700L222 700L222 0L110 0M166 776Q166 776 133 776Q100 776 100 840Q100 904 166 904Q232 904 232 840Q232 776 166 776Z"  horiz-adv-x="332" vert-adv-y="1000"  />

      
      <glyph glyph-name="uni0131" unicode="&#x0131;" d="M100 0L100 534L206 534L206 0L100 0Z"  horiz-adv-x="306" vert-adv-y="1000"  />

      
      <glyph glyph-name="uni0134" unicode="&#x0134;" d="M196 178L196 700L307 700L307 170Q307 77 264.50 35.50Q222-6 122-6Q72-6 18 12L18 119Q29 109 57 101Q85 93 113 93Q159 93 177.50 111.50Q196 130 196 178M81 765L194 915L308 915L421 765L323 765L251 857L179 765L81 765Z"  horiz-adv-x="413" vert-adv-y="1000"  />

      
      <glyph glyph-name="uni0135" unicode="&#x0135;" d="M100-5L100 534L206 534L206 2Q206-96 168.50-141Q131-186 46-186Q-7-186-39-173L-39-73Q-9-91 34-91Q69-91 84.50-71Q100-51 100-5M-7 624L98 764L208 764L313 624L222 624L153 707L85 624L-7 624Z"  horiz-adv-x="306" vert-adv-y="1000"  />

      
      <glyph glyph-name="uni0136" unicode="&#x0136;" d="M106 0L106 700L218 700L218 401L272 401L515 700L653 700L366 364L686 0L547 0L273 313L218 313L218 0L106 0M290-202Q357-198 357-157Q351-158 339-158Q312-158 294.50-146.50Q277-135 277-113Q277-92 296.50-78Q316-64 349-64Q382-64 402.50-82.50Q423-101 423-138Q423-182 390-214.50Q357-247 294-248L290-202Z"  horiz-adv-x="700" vert-adv-y="1000"  />

      
      <glyph glyph-name="uni0137" unicode="&#x0137;" d="M90 754L196 754L196 317L243 317L420 534L539 534L330 282L568 0L440 0L241 232L196 232L196 0L90 0L90 754M231-202Q300-198 300-159Q293-160 281-160Q252-160 234.50-148.50Q217-137 217-115Q217-93 237-78.50Q257-64 291-64Q325-64 346.50-83.50Q368-103 368-140Q368-185 334-216.50Q300-248 235-249L231-202Z"  horiz-adv-x="586" vert-adv-y="1000"  />

      
      <glyph glyph-name="uni0139" unicode="&#x0139;" d="M106 0L106 700L218 700L218 101L553 101L553 0L106 0M102 765L190 915L332 915L194 765L102 765Z"  horiz-adv-x="577" vert-adv-y="1000"  />

      
      <glyph glyph-name="uni013A" unicode="&#x013A;" d="M196 159Q196 116 211 100.50Q226 85 264 85Q295 85 333 97L333 7Q299-10 240-10Q167-10 129 22.50Q91 55 91 129L91 754L196 754L196 159M100 820L180 960L320 960L190 820L100 820Z"  horiz-adv-x="356" vert-adv-y="1000"  />

      
      <glyph glyph-name="uni013B" unicode="&#x013B;" d="M106 0L106 700L218 700L218 101L553 101L553 0L106 0M268-202Q335-198 335-157Q329-158 317-158Q290-158 272.50-146.50Q255-135 255-113Q255-92 274.50-78Q294-64 327-64Q360-64 380.50-82.50Q401-101 401-138Q401-182 368-214.50Q335-247 272-248L268-202Z"  horiz-adv-x="577" vert-adv-y="1000"  />

      
      <glyph glyph-name="uni013C" unicode="&#x013C;" d="M196 159Q196 116 211 100.50Q226 85 264 85Q295 85 333 97L333 7Q299-10 240-10Q167-10 129 22.50Q91 55 91 129L91 754L196 754L196 159M162-202Q231-198 231-159Q224-160 212-160Q183-160 165.50-148.50Q148-137 148-115Q148-93 168-78.50Q188-64 222-64Q256-64 277.50-83.50Q299-103 299-140Q299-185 265-216.50Q231-248 166-249L162-202Z"  horiz-adv-x="356" vert-adv-y="1000"  />

      
      <glyph glyph-name="uni013D" unicode="&#x013D;" d="M106 0L106 700L218 700L218 101L553 101L553 0L106 0M348 500L394 700L498 700L422 500L348 500Z"  horiz-adv-x="577" vert-adv-y="1000"  />

      
      <glyph glyph-name="uni013E" unicode="&#x013E;" d="M196 159Q196 116 211 100.50Q226 85 264 85Q295 85 333 97L333 7Q299-10 240-10Q167-10 129 22.50Q91 55 91 129L91 754L196 754L196 159M276 554L322 754L426 754L350 554L276 554Z"  horiz-adv-x="365" vert-adv-y="1000"  />

      
      <glyph glyph-name="uni013F" unicode="&#x013F;" d="M106 0L106 700L218 700L218 101L553 101L553 0L106 0M400 300Q400 300 391 309Q382 318 382 350Q382 382 399.50 400Q417 418 449 418Q481 418 499.50 399.50Q518 381 518 350Q518 318 500 300Q482 282 449 282Q418 282 400 300Z"  horiz-adv-x="577" vert-adv-y="1000"  />

      
      <glyph glyph-name="uni0140" unicode="&#x0140;" d="M196 159Q196 116 211 100.50Q226 85 264 85Q295 85 333 97L333 7Q299-10 240-10Q167-10 129 22.50Q91 55 91 129L91 754L196 754L196 159M285.50 301.50Q285.50 301.50 276.25 310.75Q267 320 267 352Q267 384 285 402.50Q303 421 335 421Q368 421 387 402.50Q406 384 406 352Q406 320 387.50 301.50Q369 283 335 283Q304 283 285.50 301.50Z"  horiz-adv-x="385" vert-adv-y="1000"  />

      
      <glyph glyph-name="uni0141" unicode="&#x0141;" d="M112 0L112 243L34 193L34 285L112 335L112 700L224 700L224 407L394 516L394 425L224 315L224 101L559 101L559 0L112 0Z"  horiz-adv-x="583" vert-adv-y="1000"  />

      
      <glyph glyph-name="uni0142" unicode="&#x0142;" d="M204 159Q204 116 219 100.50Q234 85 272 85Q303 85 341 97L341 7Q307-10 248-10Q175-10 137 22.50Q99 55 99 129L99 238L28 193L28 285L99 330L99 754L204 754L204 397L317 470L317 379L204 306L204 159Z"  horiz-adv-x="367" vert-adv-y="1000"  />

      
      <glyph glyph-name="uni0143" unicode="&#x0143;" d="M106 0L106 700L223 700L519 268Q551 220 581 166Q576 228 576 286L576 700L686 700L686 0L570 0L289 415Q257 460 209 549Q216 474 216 418L216 0L106 0M350 765L438 915L580 915L442 765L350 765Z"  horiz-adv-x="792" vert-adv-y="1000"  />

      
      <glyph glyph-name="uni0144" unicode="&#x0144;" d="M90 0L90 534L190 534L195 452Q245 544 369 544Q467 544 511 499Q555 454 555 344L555 0L450 0L450 317Q450 395 424.50 424Q399 453 329 453Q263 453 229.50 417Q196 381 196 315L196 0L90 0M291 624L371 764L511 764L381 624L291 624Z"  horiz-adv-x="638" vert-adv-y="1000"  />

      
      <glyph glyph-name="uni0145" unicode="&#x0145;" d="M106 0L106 700L223 700L519 268Q551 220 581 166Q576 228 576 286L576 700L686 700L686 0L570 0L289 415Q257 460 209 549Q216 474 216 418L216 0L106 0M337-202Q404-198 404-157Q398-158 386-158Q359-158 341.50-146.50Q324-135 324-113Q324-92 343.50-78Q363-64 396-64Q429-64 449.50-82.50Q470-101 470-138Q470-182 437-214.50Q404-247 341-248L337-202Z"  horiz-adv-x="792" vert-adv-y="1000"  />

      
      <glyph glyph-name="uni0146" unicode="&#x0146;" d="M90 0L90 534L190 534L195 452Q245 544 369 544Q467 544 511 499Q555 454 555 344L555 0L450 0L450 317Q450 395 424.50 424Q399 453 329 453Q263 453 229.50 417Q196 381 196 315L196 0L90 0M258-202Q327-198 327-159Q320-160 308-160Q279-160 261.50-148.50Q244-137 244-115Q244-93 264-78.50Q284-64 318-64Q352-64 373.50-83.50Q395-103 395-140Q395-185 361-216.50Q327-248 262-249L258-202Z"  horiz-adv-x="638" vert-adv-y="1000"  />

      
      <glyph glyph-name="uni0147" unicode="&#x0147;" d="M106 0L106 700L223 700L519 268Q551 220 581 166Q576 228 576 286L576 700L686 700L686 0L570 0L289 415Q257 460 209 549Q216 474 216 418L216 0L106 0M339 765L226 915L324 915L396 823L468 915L566 915L453 765L339 765Z"  horiz-adv-x="792" vert-adv-y="1000"  />

      
      <glyph glyph-name="uni0148" unicode="&#x0148;" d="M90 0L90 534L190 534L195 452Q245 544 369 544Q467 544 511 499Q555 454 555 344L555 0L450 0L450 317Q450 395 424.50 424Q399 453 329 453Q263 453 229.50 417Q196 381 196 315L196 0L90 0M267 624L162 764L254 764L322 682L391 764L482 764L377 624L267 624Z"  horiz-adv-x="638" vert-adv-y="1000"  />

      
      <glyph glyph-name="uni014C" unicode="&#x014C;" d="M64 350Q64 535 147.50 623Q231 711 403 711Q570 711 647.50 623.50Q725 536 725 350Q725 160 641 74.50Q557-11 395-11Q239-11 151.50 75.50Q64 162 64 350M182 348Q182 207 238 147.50Q294 88 399 88Q503 88 555.50 147Q608 206 608 348Q608 493 554.50 553Q501 613 394 613Q285 613 233.50 548.50Q182 484 182 348M244 800L244 880L544 880L544 800L244 800Z"  horiz-adv-x="790" vert-adv-y="1000"  />

      
      <glyph glyph-name="uni014D" unicode="&#x014D;" d="M122 60.50Q122 60.50 89 96.75Q56 133 56 269Q56 405 127.50 475Q199 545 325 545Q577 545 577 266Q577 124 507.50 56Q438-12 316-12Q188-12 122 60.50M163 269L163 265Q163 175 203 127Q243 79 322 79Q470 79 470 265L470 269Q470 456 316 456Q163 456 163 269M171 656L171 732L461 732L461 656L171 656Z"  horiz-adv-x="633" vert-adv-y="1000"  />

      
      <glyph glyph-name="uni0150" unicode="&#x0150;" d="M64 350Q64 535 147.50 623Q231 711 403 711Q570 711 647.50 623.50Q725 536 725 350Q725 160 641 74.50Q557-11 395-11Q239-11 151.50 75.50Q64 162 64 350M182 348Q182 207 238 147.50Q294 88 399 88Q503 88 555.50 147Q608 206 608 348Q608 493 554.50 553Q501 613 394 613Q285 613 233.50 548.50Q182 484 182 348M244 765L294 915L416 915L326 765L244 765M432 765L522 915L664 915L525 765L432 765Z"  horiz-adv-x="790" vert-adv-y="1000"  />

      
      <glyph glyph-name="uni0151" unicode="&#x0151;" d="M122 60.50Q122 60.50 89 96.75Q56 133 56 269Q56 405 127.50 475Q199 545 325 545Q577 545 577 266Q577 124 507.50 56Q438-12 316-12Q188-12 122 60.50M163 269L163 265Q163 175 203 127Q243 79 322 79Q470 79 470 265L470 269Q470 456 316 456Q163 456 163 269M176 624L226 764L346 764L256 624L176 624M346 624L436 764L576 764L436 624L346 624Z"  horiz-adv-x="633" vert-adv-y="1000"  />

      
      <glyph glyph-name="uni0152" unicode="&#x0152;" d="M401 711Q451 711 495 700L910 700L910 602L591 602L591 403L888 403L888 307L591 307L591 98L919 98L919 0L494 0Q453-11 393-11Q237-11 150 75.50Q63 162 63 350Q63 535 146 623Q229 711 401 711M397 88Q443 88 479 97L479 603Q443 613 392 613Q283 613 231.50 548.50Q180 484 180 348Q180 207 236.50 147.50Q293 88 397 88Z"  horiz-adv-x="982" vert-adv-y="1000"  />

      
      <glyph glyph-name="uni0153" unicode="&#x0153;" d="M122 60.50Q122 60.50 89 96.75Q56 133 56 269Q56 405 127.50 475Q199 545 325 545Q463 545 524 457Q588 545 724 545Q959 545 959 292L959 235L578 235Q579 78 749 78Q849 78 921 137L921 36Q897 18 849 3Q801-12 741-12Q585-12 523 79Q457-12 316-12Q188-12 122 60.50M722 457Q579 457 578 312L854 312Q855 386 823.50 421.50Q792 457 722 457M163 269L163 265Q163 175 203 127Q243 79 322 79Q470 79 470 265L470 269Q470 456 316 456Q163 456 163 269Z"  horiz-adv-x="1015" vert-adv-y="1000"  />

      
      <glyph glyph-name="uni0154" unicode="&#x0154;" d="M218 0L106 0L106 693Q227 706 308 706Q448 706 510 655.50Q572 605 573 493Q573 411 543.50 361Q514 311 441 284L652 0L523 0L325 268L218 268L218 0M217 355L300 355Q386 355 421.50 385.50Q457 416 457 485Q457 551 423.50 579Q390 607 303 607Q256 607 217 601L217 355M291 765L379 915L521 915L383 765L291 765Z"  horiz-adv-x="674" vert-adv-y="1000"  />

      
      <glyph glyph-name="uni0155" unicode="&#x0155;" d="M90 0L90 534L186 534L191 460Q209 500 249 522.50Q289 545 337 545Q368 545 387 541L387 427Q357 452 310 452Q196 452 196 313L196 0L90 0M183 624L263 764L403 764L273 624L183 624Z"  horiz-adv-x="423" vert-adv-y="1000"  />

      
      <glyph glyph-name="uni0156" unicode="&#x0156;" d="M218 0L106 0L106 693Q227 706 308 706Q448 706 510 655.50Q572 605 573 493Q573 411 543.50 361Q514 311 441 284L652 0L523 0L325 268L218 268L218 0M217 355L300 355Q386 355 421.50 385.50Q457 416 457 485Q457 551 423.50 579Q390 607 303 607Q256 607 217 601L217 355M278-202Q345-198 345-157Q339-158 327-158Q300-158 282.50-146.50Q265-135 265-113Q265-92 284.50-78Q304-64 337-64Q370-64 390.50-82.50Q411-101 411-138Q411-182 378-214.50Q345-247 282-248L278-202Z"  horiz-adv-x="674" vert-adv-y="1000"  />

      
      <glyph glyph-name="uni0157" unicode="&#x0157;" d="M90 0L90 534L186 534L191 460Q209 500 249 522.50Q289 545 337 545Q368 545 387 541L387 427Q357 452 310 452Q196 452 196 313L196 0L90 0M76-202Q145-198 145-159Q138-160 126-160Q97-160 79.50-148.50Q62-137 62-115Q62-93 82-78.50Q102-64 136-64Q170-64 191.50-83.50Q213-103 213-140Q213-185 179-216.50Q145-248 80-249L76-202Z"  horiz-adv-x="423" vert-adv-y="1000"  />

      
      <glyph glyph-name="uni0158" unicode="&#x0158;" d="M218 0L106 0L106 693Q227 706 308 706Q448 706 510 655.50Q572 605 573 493Q573 411 543.50 361Q514 311 441 284L652 0L523 0L325 268L218 268L218 0M217 355L300 355Q386 355 421.50 385.50Q457 416 457 485Q457 551 423.50 579Q390 607 303 607Q256 607 217 601L217 355M280 765L167 915L265 915L337 823L409 915L507 915L394 765L280 765Z"  horiz-adv-x="674" vert-adv-y="1000"  />

      
      <glyph glyph-name="uni0159" unicode="&#x0159;" d="M90 0L90 534L186 534L191 460Q209 500 249 522.50Q289 545 337 545Q368 545 387 541L387 427Q357 452 310 452Q196 452 196 313L196 0L90 0M173 624L68 764L160 764L228 682L297 764L388 764L283 624L173 624Z"  horiz-adv-x="423" vert-adv-y="1000"  />

      
      <glyph glyph-name="uni015A" unicode="&#x015A;" d="M421 188Q421 218 406 240Q391 262 366.50 274Q342 286 310.50 298Q279 310 246.50 319.50Q214 329 182.50 345Q151 361 126.50 381Q102 401 87 435.50Q72 470 72 515Q72 612 131 661Q190 710 323 710Q436 710 511 674L511 552Q435 614 324 614Q247 614 216.50 592Q186 570 186 524Q186 492 205.50 469.50Q225 447 256.50 434.50Q288 422 325.50 411Q363 400 401 385Q439 370 470.50 348.50Q502 327 521.50 287.50Q541 248 541 194Q541-10 282-10Q220-10 161 5.50Q102 21 66 46L66 178Q155 87 278 87Q421 87 421 188M271 765L359 915L501 915L363 765L271 765Z"  horiz-adv-x="602" vert-adv-y="1000"  />

      
      <glyph glyph-name="uni015B" unicode="&#x015B;" d="M435 516L435 404Q364 458 283 458Q227 458 203.50 443.50Q180 429 180 395Q180 369 201 352.50Q222 336 253 329Q284 322 320.50 311Q357 300 388 286Q419 272 440 240Q461 208 461 161Q461 74 410 31Q359-12 251-12Q145-12 65 28L65 145Q97 115 148 96Q199 77 250 77Q355 77 355 155Q355 185 326 202Q297 219 255.50 229Q214 239 173 253Q132 267 103 301Q74 335 74 389Q74 467 121 506Q168 545 279 545Q363 545 435 516M232 624L312 764L452 764L322 624L232 624Z"  horiz-adv-x="521" vert-adv-y="1000"  />

      
      <glyph glyph-name="uni015C" unicode="&#x015C;" d="M421 188Q421 218 406 240Q391 262 366.50 274Q342 286 310.50 298Q279 310 246.50 319.50Q214 329 182.50 345Q151 361 126.50 381Q102 401 87 435.50Q72 470 72 515Q72 612 131 661Q190 710 323 710Q436 710 511 674L511 552Q435 614 324 614Q247 614 216.50 592Q186 570 186 524Q186 492 205.50 469.50Q225 447 256.50 434.50Q288 422 325.50 411Q363 400 401 385Q439 370 470.50 348.50Q502 327 521.50 287.50Q541 248 541 194Q541-10 282-10Q220-10 161 5.50Q102 21 66 46L66 178Q155 87 278 87Q421 87 421 188M147 765L260 915L374 915L487 765L389 765L317 857L245 765L147 765Z"  horiz-adv-x="602" vert-adv-y="1000"  />

      
      <glyph glyph-name="uni015D" unicode="&#x015D;" d="M435 516L435 404Q364 458 283 458Q227 458 203.50 443.50Q180 429 180 395Q180 369 201 352.50Q222 336 253 329Q284 322 320.50 311Q357 300 388 286Q419 272 440 240Q461 208 461 161Q461 74 410 31Q359-12 251-12Q145-12 65 28L65 145Q97 115 148 96Q199 77 250 77Q355 77 355 155Q355 185 326 202Q297 219 255.50 229Q214 239 173 253Q132 267 103 301Q74 335 74 389Q74 467 121 506Q168 545 279 545Q363 545 435 516M117 624L222 764L332 764L437 624L346 624L277 707L209 624L117 624Z"  horiz-adv-x="521" vert-adv-y="1000"  />

      
      <glyph glyph-name="uni015E" unicode="&#x015E;" d="M246-104L258-9Q134-2 66 46L66 178Q155 87 278 87Q421 87 421 188Q421 218 406 240Q391 262 366.50 274Q342 286 310.50 298Q279 310 246.50 319.50Q214 329 182.50 345Q151 361 126.50 381Q102 401 87 435.50Q72 470 72 515Q72 612 131 661Q190 710 323 710Q436 710 511 674L511 552Q435 614 324 614Q247 614 216.50 592Q186 570 186 524Q186 492 205.50 469.50Q225 447 256.50 434.50Q288 422 325.50 411Q363 400 401 385Q439 370 470.50 348.50Q502 327 521.50 287.50Q541 248 541 194Q541 6 324-8L318-50Q426-52 426-138Q426-184 390-213Q354-242 299-242Q246-242 211-226L220-168Q250-181 284-181Q338-181 338-138Q338-101 283-101Q256-101 246-104Z"  horiz-adv-x="602" vert-adv-y="1000"  />

      
      <glyph glyph-name="uni015F" unicode="&#x015F;" d="M196-97L208-10Q130-4 65 28L65 145Q97 115 148 96Q199 77 250 77Q355 77 355 155Q355 185 326 202Q297 219 255.50 229Q214 239 173 253Q132 267 103 301Q74 335 74 389Q74 467 121 506Q168 545 279 545Q363 545 435 516L435 404Q364 458 283 458Q227 458 203.50 443.50Q180 429 180 395Q180 369 201 352.50Q222 336 253 329Q284 322 320.50 311Q357 300 388 286Q419 272 440 240Q461 208 461 161Q461-5 269-11L263-47Q363-49 363-134Q363-177 331-204.50Q299-232 247-232Q200-232 165-217L173-160Q202-173 232-173Q281-173 281-130Q281-95 231-95Q205-95 196-97Z"  horiz-adv-x="521" vert-adv-y="1000"  />

      
      <glyph glyph-name="uni0160" unicode="&#x0160;" d="M421 188Q421 218 406 240Q391 262 366.50 274Q342 286 310.50 298Q279 310 246.50 319.50Q214 329 182.50 345Q151 361 126.50 381Q102 401 87 435.50Q72 470 72 515Q72 612 131 661Q190 710 323 710Q436 710 511 674L511 552Q435 614 324 614Q247 614 216.50 592Q186 570 186 524Q186 492 205.50 469.50Q225 447 256.50 434.50Q288 422 325.50 411Q363 400 401 385Q439 370 470.50 348.50Q502 327 521.50 287.50Q541 248 541 194Q541-10 282-10Q220-10 161 5.50Q102 21 66 46L66 178Q155 87 278 87Q421 87 421 188M260 765L147 915L245 915L317 823L389 915L487 915L374 765L260 765Z"  horiz-adv-x="602" vert-adv-y="1000"  />

      
      <glyph glyph-name="uni0161" unicode="&#x0161;" d="M435 516L435 404Q364 458 283 458Q227 458 203.50 443.50Q180 429 180 395Q180 369 201 352.50Q222 336 253 329Q284 322 320.50 311Q357 300 388 286Q419 272 440 240Q461 208 461 161Q461 74 410 31Q359-12 251-12Q145-12 65 28L65 145Q97 115 148 96Q199 77 250 77Q355 77 355 155Q355 185 326 202Q297 219 255.50 229Q214 239 173 253Q132 267 103 301Q74 335 74 389Q74 467 121 506Q168 545 279 545Q363 545 435 516M222 624L117 764L209 764L277 682L346 764L437 764L332 624L222 624Z"  horiz-adv-x="521" vert-adv-y="1000"  />

      
      <glyph glyph-name="uni0162" unicode="&#x0162;" d="M241 0L241 602L26 602L26 700L568 700L568 602L353 602L353 0L330 0L322-50Q430-52 430-138Q430-184 394-213Q358-242 303-242Q250-242 215-226L224-168Q254-181 288-181Q342-181 342-138Q342-101 287-101Q260-101 250-104L264 0L241 0Z"  horiz-adv-x="594" vert-adv-y="1000"  />

      
      <glyph glyph-name="uni0163" unicode="&#x0163;" d="M241-97L254-5Q193 6 164.50 47.50Q136 89 136 169L136 443L26 443L26 534L136 534L136 637L241 675L241 534L425 534L425 443L241 443L241 179Q241 127 261 105.50Q281 84 326 84Q392 84 441 114L441 19Q398-8 314-10L308-47Q408-49 408-134Q408-177 376-204.50Q344-232 292-232Q245-232 210-217L218-160Q247-173 277-173Q326-173 326-130Q326-95 276-95Q250-95 241-97Z"  horiz-adv-x="479" vert-adv-y="1000"  />

      
      <glyph glyph-name="uni0164" unicode="&#x0164;" d="M241 0L241 602L26 602L26 700L568 700L568 602L353 602L353 0L241 0M240 765L127 915L225 915L297 823L369 915L467 915L354 765L240 765Z"  horiz-adv-x="594" vert-adv-y="1000"  />

      
      <glyph glyph-name="uni0165" unicode="&#x0165;" d="M136 169L136 443L26 443L26 534L136 534L136 637L241 675L241 534L425 534L425 443L241 443L241 179Q241 127 261 105.50Q281 84 326 84Q392 84 441 114L441 19Q395-10 309-10Q219-10 177.50 31.50Q136 73 136 169M321 614L367 814L471 814L395 614L321 614Z"  horiz-adv-x="497" vert-adv-y="1000"  />

      
      </font>
</defs>
</svg>
